  0
SECTION
  2
HEADER
  9
$ACADVER
  1
AC1018
  9
$ACADMAINTVER
 70
     0
  9
$DWGCODEPAGE
  3
ANSI_1252
  9
$EXTMIN
 10
-78137.3974111523
 20
-41789.6802616973
 30
0.0
  9
$EXTMAX
 10
-4354.33222747896
 20
83.3158295710682
 30
0.0
  9
$LIMMIN
 10
0.0
 20
0.0
  9
$LIMMAX
 10
12.0
 20
9.0
  9
$ORTHOMODE
 70
     0
  9
$REGENMODE
 70
     1
  9
$FILLMODE
 70
     1
  9
$QTEXTMODE
 70
     0
  9
$MIRRTEXT
 70
     1
  9
$LTSCALE
 40
1.0
  9
$ATTMODE
 70
     1
  9
$TEXTSIZE
 40
0.2
  9
$TRACEWID
 40
0.05
  9
$TEXTSTYLE
  7
Standard
  9
$CLAYER
  8
0
  9
$CELTYPE
  6
ByLayer
  9
$CECOLOR
 62
   256
  9
$CELTSCALE
 40
1.0
  9
$DISPSILH
 70
     0
  9
$LUNITS
 70
     2
  9
$LUPREC
 70
     4
  9
$SKETCHINC
 40
0.1
  9
$FILLETRAD
 40
0.5
  9
$AUNITS
 70
     0
  9
$AUPREC
 70
     0
  9
$MENU
  1
.
  9
$ELEVATION
 40
0.0
  9
$PELEVATION
 40
0.0
  9
$THICKNESS
 40
0.0
  9
$LIMCHECK
 70
     0
  9
$CHAMFERA
 40
0.5
  9
$CHAMFERB
 40
0.5
  9
$CHAMFERC
 40
1.0
  9
$CHAMFERD
 40
0.0
  9
$SKPOLY
 70
     0
  9
$TDCREATE
 40
2455343.56230316
  9
$TDUCREATE
 40
2455343.728969826
  9
$TDUPDATE
 40
2455343.562303171
  9
$TDUUPDATE
 40
2455343.728969838
  9
$TDINDWG
 40
0.0000000116
  9
$TDUSRTIMER
 40
0.0000000116
  9
$USRTIMER
 70
     1
  9
$ANGBASE
 50
0.0
  9
$ANGDIR
 70
     0
  9
$PDMODE
 70
     0
  9
$PDSIZE
 40
0.0
  9
$PLINEWID
 40
0.0
  9
$SPLFRAME
 70
     0
  9
$SPLINETYPE
 70
     6
  9
$SPLINESEGS
 70
     8
  9
$HANDSEED
  5
000200A4
  9
$SURFTAB1
 70
     6
  9
$SURFTAB2
 70
     6
  9
$SURFTYPE
 70
     6
  9
$SURFU
 70
     6
  9
$SURFV
 70
     6
  9
$UCSBASE
  2

  9
$UCSNAME
  2

  9
$UCSORG
 10
0.0
 20
0.0
 30
0.0
  9
$UCSXDIR
 10
1.0
 20
0.0
 30
0.0
  9
$UCSYDIR
 10
0.0
 20
1.0
 30
0.0
  9
$UCSORTHOREF
  2

  9
$UCSORTHOVIEW
 70
     0
  9
$UCSORGTOP
 10
0.0
 20
0.0
 30
0.0
  9
$UCSORGBOTTOM
 10
0.0
 20
0.0
 30
0.0
  9
$UCSORGLEFT
 10
0.0
 20
0.0
 30
0.0
  9
$UCSORGRIGHT
 10
0.0
 20
0.0
 30
0.0
  9
$UCSORGFRONT
 10
0.0
 20
0.0
 30
0.0
  9
$UCSORGBACK
 10
0.0
 20
0.0
 30
0.0
  9
$PUCSBASE
  2

  9
$PUCSNAME
  2

  9
$PUCSORG
 10
0.0
 20
0.0
 30
0.0
  9
$PUCSXDIR
 10
1.0
 20
0.0
 30
0.0
  9
$PUCSYDIR
 10
0.0
 20
1.0
 30
0.0
  9
$PUCSORTHOREF
  2

  9
$PUCSORTHOVIEW
 70
     0
  9
$PUCSORGTOP
 10
0.0
 20
0.0
 30
0.0
  9
$PUCSORGBOTTOM
 10
0.0
 20
0.0
 30
0.0
  9
$PUCSORGLEFT
 10
0.0
 20
0.0
 30
0.0
  9
$PUCSORGRIGHT
 10
0.0
 20
0.0
 30
0.0
  9
$PUCSORGFRONT
 10
0.0
 20
0.0
 30
0.0
  9
$PUCSORGBACK
 10
0.0
 20
0.0
 30
0.0
  9
$WORLDVIEW
 70
     1
  9
$SHADEDGE
 70
     3
  9
$SHADEDIF
 70
    70
  9
$TILEMODE
 70
     1
  9
$MAXACTVP
 70
    64
  9
$PINSBASE
 10
0.0
 20
0.0
 30
0.0
  9
$PLIMCHECK
 70
     0
  9
$PEXTMIN
 10
1.000000000000000E+20
 20
1.000000000000000E+20
 30
1.000000000000000E+20
  9
$PEXTMAX
 10
-1.000000000000000E+20
 20
-1.000000000000000E+20
 30
-1.000000000000000E+20
  9
$PLIMMIN
 10
0.0
 20
0.0
  9
$PLIMMAX
 10
12.0
 20
9.0
  9
$UNITMODE
 70
     0
  9
$VISRETAIN
 70
     1
  9
$PLINEGEN
 70
     0
  9
$PSLTSCALE
 70
     1
  9
$TREEDEPTH
 70
  3020
  9
$CMLSTYLE
  2
Standard
  9
$CMLJUST
 70
     0
  9
$CMLSCALE
 40
1.0
  9
$PROXYGRAPHICS
 70
     1
  9
$MEASUREMENT
 70
     0
  9
$CELWEIGHT
370
    -1
  9
$ENDCAPS
280
     0
  9
$JOINSTYLE
280
     0
  9
$LWDISPLAY
290
     0
  9
$INSUNITS
 70
     1
  9
$HYPERLINKBASE
  1

  9
$STYLESHEET
  1

  9
$XEDIT
290
     1
  9
$CEPSNTYPE
380
     0
  9
$PSTYLEMODE
290
     1
  9
$FINGERPRINTGUID
  2
{E7F7769E-AACA-40AB-9EF3-61BBAFBCBA26}
  9
$VERSIONGUID
  2
{FAEB1C32-E019-11D5-929B-00C0DF256EC4}
  9
$EXTNAMES
290
     1
  9
$PSVPSCALE
 40
0.0
  9
$OLESTARTUP
290
     0
  9
$SORTENTS
280
   127
  9
$INDEXCTL
280
     0
  9
$HIDETEXT
280
     1
  9
$XCLIPFRAME
290
     0
  9
$HALOGAP
280
     0
  9
$OBSCOLOR
 70
   257
  9
$OBSLTYPE
280
     0
  9
$INTERSECTIONDISPLAY
280
     0
  9
$INTERSECTIONCOLOR
 70
   257
  9
$DIMASSOC
280
     2
  9
$PROJECTNAME
  1

  0
ENDSEC
  0
SECTION
  2
CLASSES
  0
CLASS
  1
ACDBDICTIONARYWDFLT
  2
AcDbDictionaryWithDefault
  3
ObjectDBX Classes
 90
        0
 91
        4
280
     0
281
     0
  0
CLASS
  1
VISUALSTYLE
  2
AcDbVisualStyle
  3
ObjectDBX Classes
 90
     4095
 91
        4
280
     0
281
     0
  0
ENDSEC
  0
SECTION
  2
TABLES
  0
TABLE
  2
VPORT
  5
8
330
0
100
AcDbSymbolTable
 70
     1
  0
VPORT
  5
29
330
8
100
AcDbSymbolTableRecord
100
AcDbViewportTableRecord
  2
*Active
 70
     0
 10
0.0
 20
0.0
 11
1.0
 21
1.0
 12
80.25
 22
106.4409457059851
 13
0.0
 23
0.0
 14
0.5
 24
0.5
 15
0.5
 25
0.5
 16
0.0
 26
0.0
 36
1.0
 17
0.0
 27
0.0
 37
0.0
 40
113.3818914119703
 41
0.8863849310366128
 42
50.0
 43
0.0
 44
0.0
 50
0.0
 51
0.0
 71
     0
 72
  1000
 73
     1
 74
     3
 75
     0
 76
     0
 77
     0
 78
     0
281
     0
 65
     1
110
0.0
120
0.0
130
0.0
111
1.0
121
0.0
131
0.0
112
0.0
122
1.0
132
0.0
 79
     0
146
0.0
  0
ENDTAB
  0
TABLE
  2
LTYPE
  5
5
330
0
100
AcDbSymbolTable
 70
     1
  0
LTYPE
  5
14
330
5
100
AcDbSymbolTableRecord
100
AcDbLinetypeTableRecord
  2
ByBlock
 70
     0
  3

 72
    65
 73
     0
 40
0.0
  0
LTYPE
  5
15
330
5
100
AcDbSymbolTableRecord
100
AcDbLinetypeTableRecord
  2
ByLayer
 70
     0
  3

 72
    65
 73
     0
 40
0.0
  0
LTYPE
  5
16
330
5
100
AcDbSymbolTableRecord
100
AcDbLinetypeTableRecord
  2
Continuous
 70
     0
  3
Solid line
 72
    65
 73
     0
 40
0.0
  0
ENDTAB
  0
TABLE
  2
LAYER
  5
2
330
0
100
AcDbSymbolTable
 70
     1
  0
LAYER
  5
10
330
2
100
AcDbSymbolTableRecord
100
AcDbLayerTableRecord
  2
0
 70
     0
 62
     7
  6
Continuous
370
    -3
390
F
  0
ENDTAB
  0
TABLE
  2
STYLE
  5
3
330
0
100
AcDbSymbolTable
 70
     1
  0
STYLE
  5
11
330
3
100
AcDbSymbolTableRecord
100
AcDbTextStyleTableRecord
  2
Standard
 70
     0
 40
0.0
 41
1.0
 50
0.0
 71
     0
 42
0.2
  3
txt
  4

  0
ENDTAB
  0
TABLE
  2
VIEW
  5
6
330
0
100
AcDbSymbolTable
 70
     0
  0
ENDTAB
  0
TABLE
  2
UCS
  5
7
330
0
100
AcDbSymbolTable
 70
     0
  0
ENDTAB
  0
TABLE
  2
APPID
  5
9
330
0
100
AcDbSymbolTable
 70
     1
  0
APPID
  5
12
330
9
100
AcDbSymbolTableRecord
100
AcDbRegAppTableRecord
  2
ACAD
 70
     0
  0
ENDTAB
  0
TABLE
  2
DIMSTYLE
  5
A
330
0
100
AcDbSymbolTable
 70
     1
100
AcDbDimStyleTable
  0
DIMSTYLE
105
27
330
A
100
AcDbSymbolTableRecord
100
AcDbDimStyleTableRecord
  2
Standard
 70
     0
340
11
  0
ENDTAB
  0
TABLE
  2
BLOCK_RECORD
  5
1
330
0
100
AcDbSymbolTable
 70
     1
  0
BLOCK_RECORD
  5
1F
330
1
100
AcDbSymbolTableRecord
100
AcDbBlockTableRecord
  2
*Model_Space
340
22
  0
BLOCK_RECORD
  5
1B
330
1
100
AcDbSymbolTableRecord
100
AcDbBlockTableRecord
  2
*Paper_Space
340
1E
  0
BLOCK_RECORD
  5
23
330
1
100
AcDbSymbolTableRecord
100
AcDbBlockTableRecord
  2
*Paper_Space0
340
26
  0
ENDTAB
  0
ENDSEC
  0
SECTION
  2
BLOCKS
  0
BLOCK
  5
20
330
1F
100
AcDbEntity
  8
0
100
AcDbBlockBegin
  2
*Model_Space
 70
     0
 10
0.0
 20
0.0
 30
0.0
  3
*Model_Space
  1

  0
ENDBLK
  5
21
330
1F
100
AcDbEntity
  8
0
100
AcDbBlockEnd
  0
BLOCK
  5
1C
330
1B
100
AcDbEntity
 67
     1
  8
0
100
AcDbBlockBegin
  2
*Paper_Space
 70
     0
 10
0.0
 20
0.0
 30
0.0
  3
*Paper_Space
  1

  0
ENDBLK
  5
1D
330
1B
100
AcDbEntity
 67
     1
  8
0
100
AcDbBlockEnd
  0
BLOCK
  5
24
330
23
100
AcDbEntity
  8
0
100
AcDbBlockBegin
  2
*Paper_Space0
 70
     0
 10
0.0
 20
0.0
 30
0.0
  3
*Paper_Space0
  1

  0
ENDBLK
  5
25
330
23
100
AcDbEntity
  8
0
100
AcDbBlockEnd
  0
ENDSEC
  0
SECTION
  2
ENTITIES
  0
LWPOLYLINE
  5
20000
  8
0
100
AcDbEntity
100
AcDbPolyline
 70
0
 90
2
 10
-63220.4291430885
 20
-7420.73391254971
 10
-48220.4291430885
 20
-7420.73391254971
  0
LWPOLYLINE
  5
20001
  8
0
100
AcDbEntity
100
AcDbPolyline
 70
0
 90
2
 10
-63220.4291430885
 20
-7420.73391254971
 10
-63220.4291430885
 20
-5320.73391254971
  0
LWPOLYLINE
  5
20002
  8
0
100
AcDbEntity
100
AcDbPolyline
 70
0
 90
2
 10
-69170.4291430885
 20
-5320.73391254971
 10
-63220.4291430885
 20
-5320.73391254971
  0
LWPOLYLINE
  5
20003
  8
0
100
AcDbEntity
100
AcDbPolyline
 70
0
 90
2
 10
-70662.1099499394
 20
-18678.0005567808
 10
-68112.1099499394
 20
-18678.0005567808
  0
LWPOLYLINE
  5
20004
  8
0
100
AcDbEntity
100
AcDbPolyline
 70
0
 90
2
 10
-70662.1099499394
 20
-18678.0005567808
 10
-70662.1099499394
 20
-16128.0005567808
  0
LWPOLYLINE
  5
20005
  8
0
100
AcDbEntity
100
AcDbPolyline
 70
0
 90
2
 10
-70662.1099499394
 20
-17027.8098564744
 10
-70662.1099499394
 20
-16128.0005567808
  0
LWPOLYLINE
  5
20006
  8
0
100
AcDbEntity
100
AcDbPolyline
 70
0
 90
2
 10
-73412.1099499394
 20
-16128.0005567808
 10
-70662.1099499394
 20
-16128.0005567808
  0
LWPOLYLINE
  5
20007
  8
0
100
AcDbEntity
100
AcDbPolyline
 70
0
 90
2
 10
-73412.1099499394
 20
-16128.0005567808
 10
-73412.1099499394
 20
-13178.0005567808
  0
LWPOLYLINE
  5
20008
  8
0
100
AcDbEntity
100
AcDbPolyline
 70
0
 90
2
 10
-75162.1099499394
 20
-13178.0005567808
 10
-73412.1099499394
 20
-13178.0005567808
  0
LWPOLYLINE
  5
20009
  8
0
100
AcDbEntity
100
AcDbPolyline
 70
0
 90
2
 10
-78137.3974111523
 20
-15204.7379653144
 10
-75162.1099499394
 20
-13178.0005567808
  0
LWPOLYLINE
  5
2000A
  8
0
100
AcDbEntity
100
AcDbPolyline
 70
0
 90
2
 10
-78137.3974111523
 20
-25104.7379653144
 10
-78137.3974111523
 20
-15204.7379653144
  0
LWPOLYLINE
  5
2000B
  8
0
100
AcDbEntity
100
AcDbPolyline
 70
0
 90
2
 10
-78137.3974111523
 20
-25104.7379653144
 10
-75193.2767500703
 20
-27088.3340766712
  0
LWPOLYLINE
  5
2000C
  8
0
100
AcDbEntity
100
AcDbPolyline
 70
0
 90
2
 10
-75193.2767500703
 20
-27088.3340766712
 10
-73443.2767500703
 20
-27088.3340766712
  0
LWPOLYLINE
  5
2000D
  8
0
100
AcDbEntity
100
AcDbPolyline
 70
0
 90
2
 10
-73443.2767500703
 20
-27088.3340766712
 10
-73443.2767500703
 20
-24188.3340766712
  0
LWPOLYLINE
  5
2000E
  8
0
100
AcDbEntity
100
AcDbPolyline
 70
0
 90
2
 10
-73443.2767500703
 20
-24188.3340766712
 10
-70743.2767500703
 20
-24188.3340766712
  0
LWPOLYLINE
  5
2000F
  8
0
100
AcDbEntity
100
AcDbPolyline
 70
0
 90
2
 10
-70743.2767500703
 20
-24188.3340766712
 10
-70743.2767500703
 20
-21938.3340766712
  0
LWPOLYLINE
  5
20010
  8
0
100
AcDbEntity
100
AcDbPolyline
 70
0
 90
2
 10
-70743.2767500703
 20
-21938.3340766712
 10
-68043.2767500703
 20
-21938.3340766712
  0
LWPOLYLINE
  5
20011
  8
0
100
AcDbEntity
100
AcDbPolyline
 70
0
 90
2
 10
-68043.2767500703
 20
-26688.3340766712
 10
-68043.2767500703
 20
-21938.3340766712
  0
LWPOLYLINE
  5
20012
  8
0
100
AcDbEntity
100
AcDbPolyline
 70
0
 90
2
 10
-71243.2767500703
 20
-26688.3340766712
 10
-68043.2767500703
 20
-26688.3340766712
  0
LWPOLYLINE
  5
20013
  8
0
100
AcDbEntity
100
AcDbPolyline
 70
0
 90
2
 10
-71243.2767500703
 20
-28388.3340766712
 10
-71243.2767500703
 20
-26688.3340766712
  0
LWPOLYLINE
  5
20014
  8
0
100
AcDbEntity
100
AcDbPolyline
 70
0
 90
2
 10
-71243.2767500703
 20
-34000.3582678046
 10
-69227.4366310744
 20
-35567.4493154121
  0
LWPOLYLINE
  5
20015
  8
0
100
AcDbEntity
100
AcDbPolyline
 70
0
 90
2
 10
-69227.4366310744
 20
-35567.4493154121
 10
-63227.4366310744
 20
-35567.4493154121
  0
LWPOLYLINE
  5
20016
  8
0
100
AcDbEntity
100
AcDbPolyline
 70
0
 90
2
 10
-63227.4366310744
 20
-35567.4493154121
 10
-63227.4366310744
 20
-32867.4493154121
  0
LWPOLYLINE
  5
20017
  8
0
100
AcDbEntity
100
AcDbPolyline
 70
0
 90
2
 10
-51920.4291430884
 20
-10720.7339125497
 10
-48220.4291430885
 20
-10720.7339125497
  0
LWPOLYLINE
  5
20018
  8
0
100
AcDbEntity
100
AcDbPolyline
 70
0
 90
2
 10
-63220.4291430885
 20
-14176.4979608516
 10
-63220.4291430885
 20
-10720.7339125497
  0
LWPOLYLINE
  5
20019
  8
0
100
AcDbEntity
100
AcDbPolyline
 70
0
 90
2
 10
-65420.4291430884
 20
-14176.4979608516
 10
-63220.4291430885
 20
-14176.4979608516
  0
LWPOLYLINE
  5
2001A
  8
0
100
AcDbEntity
100
AcDbPolyline
 70
0
 90
2
 10
-65420.4291430884
 20
-18678.0005567808
 10
-65420.4291430884
 20
-14176.4979608516
  0
LWPOLYLINE
  5
2001B
  8
0
100
AcDbEntity
100
AcDbPolyline
 70
0
 90
2
 10
-65420.4291430884
 20
-18678.0005567808
 10
-62530.4291430885
 20
-18678.0005567808
  0
LWPOLYLINE
  5
2001C
  8
0
100
AcDbEntity
100
AcDbPolyline
 70
0
 90
2
 10
-62530.4291430885
 20
-18678.0005567808
 10
-62530.4291430885
 20
-16578.0005567808
  0
LWPOLYLINE
  5
2001D
  8
0
100
AcDbEntity
100
AcDbPolyline
 70
0
 90
2
 10
-62530.4291430885
 20
-16578.0005567808
 10
-60987.3808714036
 20
-15009.8800157348
  0
LWPOLYLINE
  5
2001E
  8
0
100
AcDbEntity
100
AcDbPolyline
 70
0
 90
2
 10
-60987.3808714036
 20
-15009.8800157348
 10
-59387.3808714036
 20
-15009.8800157348
  0
LWPOLYLINE
  5
2001F
  8
0
100
AcDbEntity
100
AcDbPolyline
 70
0
 90
2
 10
-59387.3808714036
 20
-15009.8800157348
 10
-58130.4291430884
 20
-16287.2553645449
  0
LWPOLYLINE
  5
20020
  8
0
100
AcDbEntity
100
AcDbPolyline
 70
0
 90
2
 10
-65420.4291430884
 20
-21978.0005567808
 10
-62530.4291430885
 20
-21978.0005567808
  0
LWPOLYLINE
  5
20021
  8
0
100
AcDbEntity
100
AcDbPolyline
 70
0
 90
2
 10
-65420.4291430884
 20
-21978.0005567808
 10
-65420.4291430884
 20
-26688.3340766712
  0
LWPOLYLINE
  5
20022
  8
0
100
AcDbEntity
100
AcDbPolyline
 70
0
 90
2
 10
-63227.4366310744
 20
-32867.4493154121
 10
-59777.4366310744
 20
-32867.4493154121
  0
LWPOLYLINE
  5
20023
  8
0
100
AcDbEntity
100
AcDbPolyline
 70
0
 90
2
 10
-59777.4366310744
 20
-37717.4493154121
 10
-59777.4366310744
 20
-32867.4493154121
  0
LWPOLYLINE
  5
20024
  8
0
100
AcDbEntity
100
AcDbPolyline
 70
0
 90
2
 10
-59777.4366310744
 20
-37717.4493154121
 10
-46327.4366310744
 20
-37717.4493154121
  0
LWPOLYLINE
  5
20025
  8
0
100
AcDbEntity
100
AcDbPolyline
 70
0
 90
2
 10
-57127.4366310744
 20
-34467.4493154121
 10
-57127.4366310744
 20
-29567.4493154121
  0
LWPOLYLINE
  5
20026
  8
0
100
AcDbEntity
100
AcDbPolyline
 70
0
 90
2
 10
-63227.4366310744
 20
-29567.4493154121
 10
-57127.4366310744
 20
-29567.4493154121
  0
LWPOLYLINE
  5
20027
  8
0
100
AcDbEntity
100
AcDbPolyline
 70
0
 90
2
 10
-55227.4366310744
 20
-27117.4493154121
 10
-55227.4366310744
 20
-23467.4493154121
  0
LWPOLYLINE
  5
20028
  8
0
100
AcDbEntity
100
AcDbPolyline
 70
0
 90
2
 10
-52120
 20
-23467.4493154121
 10
-46527.4366310744
 20
-23467.4493154121
  0
LWPOLYLINE
  5
20029
  8
0
100
AcDbEntity
100
AcDbPolyline
 70
0
 90
2
 10
-52727.4366310744
 20
-34467.4493154121
 10
-52727.4366310744
 20
-32936.5556896095
  0
LWPOLYLINE
  5
2002A
  8
0
100
AcDbEntity
100
AcDbPolyline
 70
0
 90
2
 10
-52727.4366310744
 20
-32936.5556896095
 10
-50336.4016659688
 20
-32936.5556896095
  0
LWPOLYLINE
  5
2002B
  8
0
100
AcDbEntity
100
AcDbPolyline
 70
0
 90
2
 10
-50336.4016659688
 20
-32936.5556896095
 10
-48558.5950841247
 20
-31178.8857099057
  0
LWPOLYLINE
  5
2002C
  8
0
100
AcDbEntity
100
AcDbPolyline
 70
0
 90
2
 10
-48558.5950841247
 20
-31178.8857099057
 10
-48558.5950841247
 20
-27678.8857099057
  0
LWPOLYLINE
  5
2002D
  8
0
100
AcDbEntity
100
AcDbPolyline
 70
0
 90
2
 10
-48558.5950841247
 20
-27678.8857099057
 10
-46427.4366310744
 20
-25567.4493154121
  0
LWPOLYLINE
  5
2002E
  8
0
100
AcDbEntity
100
AcDbPolyline
 70
0
 90
2
 10
-46427.4366310744
 20
-25567.4493154121
 10
-46427.4366310744
 20
-23467.4493154121
  0
LWPOLYLINE
  5
2002F
  8
0
100
AcDbEntity
100
AcDbPolyline
 70
0
 90
2
 10
-55227.4366310744
 20
-23467.4493154121
 10
-46427.4366310744
 20
-23467.4493154121
  0
LWPOLYLINE
  5
20030
  8
0
100
AcDbEntity
100
AcDbPolyline
 70
0
 90
2
 10
-54620.4291430884
 20
-11970.7339125497
 10
-54620.4291430884
 20
-10720.7339125497
  0
LWPOLYLINE
  5
20031
  8
0
100
AcDbEntity
100
AcDbPolyline
 70
0
 90
2
 10
-63220.4291430885
 20
-10720.7339125497
 10
-54620.4291430884
 20
-10720.7339125497
  0
LWPOLYLINE
  5
20032
  8
0
100
AcDbEntity
100
AcDbPolyline
 70
0
 90
2
 10
-51920.4291430884
 20
-11970.7339125497
 10
-51920.4291430884
 20
-10720.7339125497
  0
LWPOLYLINE
  5
20033
  8
0
100
AcDbEntity
100
AcDbPolyline
 70
0
 90
2
 10
-56720.4291430884
 20
-11970.7339125497
 10
-54620.4291430884
 20
-11970.7339125497
  0
LWPOLYLINE
  5
20034
  8
0
100
AcDbEntity
100
AcDbPolyline
 70
0
 90
2
 10
-56720.4291430884
 20
-19770.7339125497
 10
-56720.4291430884
 20
-11970.7339125497
  0
LWPOLYLINE
  5
20035
  8
0
100
AcDbEntity
100
AcDbPolyline
 70
0
 90
2
 10
-56720.4291430884
 20
-19770.7339125497
 10
-55378.923281716
 20
-21514.3973043497
  0
LWPOLYLINE
  5
20036
  8
0
100
AcDbEntity
100
AcDbPolyline
 70
0
 90
2
 10
-55378.923281716
 20
-21514.3973043497
 10
-46528.923281716
 20
-21514.3973043497
  0
LWPOLYLINE
  5
20037
  8
0
100
AcDbEntity
100
AcDbPolyline
 70
0
 90
2
 10
-46528.923281716
 20
-21514.3973043497
 10
-46528.923281716
 20
-19414.3973043497
  0
LWPOLYLINE
  5
20038
  8
0
100
AcDbEntity
100
AcDbPolyline
 70
0
 90
2
 10
-52727.4366310744
 20
-34467.4493154121
 10
-46327.4366310744
 20
-34467.4493154121
  0
LWPOLYLINE
  5
20039
  8
0
100
AcDbEntity
100
AcDbPolyline
 70
0
 90
2
 10
-46327.4366310744
 20
-34467.4493154121
 10
-46327.4366310744
 20
-28517.4493154121
  0
LWPOLYLINE
  5
2003A
  8
0
100
AcDbEntity
100
AcDbPolyline
 70
0
 90
2
 10
-46327.4366310744
 20
-28517.4493154121
 10
-43711.1478800793
 20
-25901.1478856421
  0
LWPOLYLINE
  5
2003B
  8
0
100
AcDbEntity
100
AcDbPolyline
 70
0
 90
2
 10
-43711.1478800793
 20
-25901.1478856421
 10
-40011.1478800793
 20
-25901.1478856421
  0
LWPOLYLINE
  5
2003C
  8
0
100
AcDbEntity
100
AcDbPolyline
 70
0
 90
2
 10
-40011.1478800793
 20
-25901.1478856421
 10
-40011.1478800793
 20
-19151.1478856421
  0
LWPOLYLINE
  5
2003D
  8
0
100
AcDbEntity
100
AcDbPolyline
 70
0
 90
2
 10
-40401.1478800793
 20
-19151.1478856421
 10
-40011.1478800793
 20
-19151.1478856421
  0
LWPOLYLINE
  5
2003E
  8
0
100
AcDbEntity
100
AcDbPolyline
 70
0
 90
2
 10
-43901.1478800793
 20
-19151.1478856421
 10
-40401.1478800793
 20
-19151.1478856421
  0
LWPOLYLINE
  5
2003F
  8
0
100
AcDbEntity
100
AcDbPolyline
 70
0
 90
2
 10
-46327.4366310744
 20
-38217.4493154121
 10
-46327.4366310744
 20
-37717.4493154121
  0
LWPOLYLINE
  5
20040
  8
0
100
AcDbEntity
100
AcDbPolyline
 70
0
 90
2
 10
-46327.4366310744
 20
-38217.4493154121
 10
-42789.4807703965
 20
-41750.5596063449
  0
LWPOLYLINE
  5
20041
  8
0
100
AcDbEntity
100
AcDbPolyline
 70
0
 90
2
 10
-42789.4807703965
 20
-41789.6802616973
 10
-35889.4807703965
 20
-41789.6802616973
  0
LWPOLYLINE
  5
20042
  8
0
100
AcDbEntity
100
AcDbPolyline
 70
0
 90
2
 10
-37371.1478800793
 20
-25901.1478856421
 10
-35889.4807703965
 20
-25901.1478856421
  0
LWPOLYLINE
  5
20043
  8
0
100
AcDbEntity
100
AcDbPolyline
 70
0
 90
2
 10
-37371.1478800793
 20
-21651.1478856421
 10
-25371.1478800793
 20
-21651.1478856421
  0
LWPOLYLINE
  5
20044
  8
0
100
AcDbEntity
100
AcDbPolyline
 70
0
 90
2
 10
-25371.1478800793
 20
-27951.1478856421
 10
-25371.1478800793
 20
-21651.1478856421
  0
LWPOLYLINE
  5
20045
  8
0
100
AcDbEntity
100
AcDbPolyline
 70
0
 90
2
 10
-26880.875928661
 20
-29410.8469023321
 10
-25371.1478800793
 20
-27951.1478856421
  0
LWPOLYLINE
  5
20046
  8
0
100
AcDbEntity
100
AcDbPolyline
 70
0
 90
2
 10
-33880.875928661
 20
-29410.8469023321
 10
-26880.875928661
 20
-29410.8469023321
  0
LWPOLYLINE
  5
20047
  8
0
100
AcDbEntity
100
AcDbPolyline
 70
0
 90
2
 10
-33980.875928661
 20
-29410.8469023321
 10
-33880.875928661
 20
-29410.8469023321
  0
LWPOLYLINE
  5
20048
  8
0
100
AcDbEntity
100
AcDbPolyline
 70
0
 90
2
 10
-48220.4291430885
 20
-7420.73391254971
 10
-48220.4291430885
 20
-3330.73391254972
  0
LWPOLYLINE
  5
20049
  8
0
100
AcDbEntity
100
AcDbPolyline
 70
0
 90
2
 10
-48220.4291430885
 20
-3330.73391254972
 10
-44846.3715919603
 20
83.3158295710682
  0
LWPOLYLINE
  5
2004A
  8
0
100
AcDbEntity
100
AcDbPolyline
 70
0
 90
2
 10
-28985.1215269549
 20
-7354.90224909698
 10
-28985.1215269549
 20
-4854.90224909698
  0
LWPOLYLINE
  5
2004B
  8
0
100
AcDbEntity
100
AcDbPolyline
 70
0
 90
2
 10
-28985.1215269549
 20
-7354.90224909698
 10
-25260.1215269549
 20
-7354.90224909698
  0
LWPOLYLINE
  5
2004C
  8
0
100
AcDbEntity
100
AcDbPolyline
 70
0
 90
2
 10
-25260.1215269549
 20
-7354.90224909698
 10
-25260.1215269549
 20
-3904.90224909698
  0
LWPOLYLINE
  5
2004D
  8
0
100
AcDbEntity
100
AcDbPolyline
 70
0
 90
2
 10
-25260.1215269549
 20
-3904.90224909698
 10
-21060.1215269549
 20
-3904.90224909698
  0
LWPOLYLINE
  5
2004E
  8
0
100
AcDbEntity
100
AcDbPolyline
 70
0
 90
2
 10
-21060.1215269549
 20
-3904.90224909698
 10
-17380.6759893868
 20
-7579.36554814766
  0
LWPOLYLINE
  5
2004F
  8
0
100
AcDbEntity
100
AcDbPolyline
 70
0
 90
2
 10
-17380.6759893868
 20
-12929.3655481477
 10
-17380.6759893868
 20
-7579.36554814766
  0
LWPOLYLINE
  5
20050
  8
0
100
AcDbEntity
100
AcDbPolyline
 70
0
 90
2
 10
-28985.1215269549
 20
-10704.902249097
 10
-25260.1215269549
 20
-10704.902249097
  0
LWPOLYLINE
  5
20051
  8
0
100
AcDbEntity
100
AcDbPolyline
 70
0
 90
2
 10
-22380.6759893868
 20
-15129.3655481477
 10
-22380.6759893868
 20
-12935.4304628284
  0
LWPOLYLINE
  5
20052
  8
0
100
AcDbEntity
100
AcDbPolyline
 70
0
 90
2
 10
-23434.684790142
 20
-12935.4304628284
 10
-22380.6759893868
 20
-12935.4304628284
  0
LWPOLYLINE
  5
20053
  8
0
100
AcDbEntity
100
AcDbPolyline
 70
0
 90
2
 10
-25260.1215269549
 20
-11154.902249097
 10
-23434.684790142
 20
-12935.4304628284
  0
LWPOLYLINE
  5
20054
  8
0
100
AcDbEntity
100
AcDbPolyline
 70
0
 90
2
 10
-25260.1215269549
 20
-11154.902249097
 10
-25260.1215269549
 20
-10704.902249097
  0
LWPOLYLINE
  5
20055
  8
0
100
AcDbEntity
100
AcDbPolyline
 70
0
 90
2
 10
-24180.6759893868
 20
-15129.3655481477
 10
-22380.6759893868
 20
-15129.3655481477
  0
LWPOLYLINE
  5
20056
  8
0
100
AcDbEntity
100
AcDbPolyline
 70
0
 90
2
 10
-24180.6759893868
 20
-15129.3655481477
 10
-24180.6759893868
 20
-14379.3655481477
  0
LWPOLYLINE
  5
20057
  8
0
100
AcDbEntity
100
AcDbPolyline
 70
0
 90
2
 10
-27670.6759893868
 20
-14379.3655481477
 10
-24180.6759893868
 20
-14379.3655481477
  0
LWPOLYLINE
  5
20058
  8
0
100
AcDbEntity
100
AcDbPolyline
 70
0
 90
2
 10
-27670.6759893868
 20
-15069.3655481477
 10
-27670.6759893868
 20
-14379.3655481477
  0
LWPOLYLINE
  5
20059
  8
0
100
AcDbEntity
100
AcDbPolyline
 70
0
 90
2
 10
-30361.9941963216
 20
-17752.0519459626
 10
-27670.6759893868
 20
-15069.3655481477
  0
LWPOLYLINE
  5
2005A
  8
0
100
AcDbEntity
100
AcDbPolyline
 70
0
 90
2
 10
-35889.4807703965
 20
-41789.6802616973
 10
-35889.4807703965
 20
-33689.6802616974
  0
LWPOLYLINE
  5
2005B
  8
0
100
AcDbEntity
100
AcDbPolyline
 70
0
 90
2
 10
-33980.875928661
 20
-29410.8469023321
 10
-33980.875928661
 20
-24901.1478856421
  0
LWPOLYLINE
  5
2005C
  8
0
100
AcDbEntity
100
AcDbPolyline
 70
0
 90
2
 10
-37371.1478800793
 20
-24901.1478856421
 10
-33980.875928661
 20
-24901.1478856421
  0
LWPOLYLINE
  5
2005D
  8
0
100
AcDbEntity
100
AcDbPolyline
 70
0
 90
2
 10
-37371.1478800793
 20
-25901.1478856421
 10
-37371.1478800793
 20
-24901.1478856421
  0
LWPOLYLINE
  5
2005E
  8
0
100
AcDbEntity
100
AcDbPolyline
 70
0
 90
2
 10
-35889.4807703965
 20
-33689.6802616974
 10
-29909.4807703965
 20
-33689.6802616974
  0
LWPOLYLINE
  5
2005F
  8
0
100
AcDbEntity
100
AcDbPolyline
 70
0
 90
2
 10
-29909.4807703965
 20
-35189.6802616973
 10
-29909.4807703965
 20
-33689.6802616974
  0
LWPOLYLINE
  5
20060
  8
0
100
AcDbEntity
100
AcDbPolyline
 70
0
 90
2
 10
-34809.4807703965
 20
-35189.6802616973
 10
-29909.4807703965
 20
-35189.6802616973
  0
LWPOLYLINE
  5
20061
  8
0
100
AcDbEntity
100
AcDbPolyline
 70
0
 90
2
 10
-34809.4807703965
 20
-39989.6802616973
 10
-34809.4807703965
 20
-35189.6802616973
  0
LWPOLYLINE
  5
20062
  8
0
100
AcDbEntity
100
AcDbPolyline
 70
0
 90
2
 10
-34809.4807703965
 20
-39989.6802616973
 10
-33117.7960358401
 20
-41692.0911283417
  0
LWPOLYLINE
  5
20063
  8
0
100
AcDbEntity
100
AcDbPolyline
 70
0
 90
2
 10
-33117.7960358401
 20
-41692.0911283417
 10
-27967.7960358401
 20
-41692.0911283417
  0
LWPOLYLINE
  5
20064
  8
0
100
AcDbEntity
100
AcDbPolyline
 70
0
 90
2
 10
-27967.7960358401
 20
-41692.0911283417
 10
-26151.8802957067
 20
-39901.8537070102
  0
LWPOLYLINE
  5
20065
  8
0
100
AcDbEntity
100
AcDbPolyline
 70
0
 90
2
 10
-26151.8802957067
 20
-39901.8537070102
 10
-26151.8802957067
 20
-35189.6802616973
  0
LWPOLYLINE
  5
20066
  8
0
100
AcDbEntity
100
AcDbPolyline
 70
0
 90
2
 10
-27251.8802957067
 20
-35189.6802616973
 10
-26151.8802957067
 20
-35189.6802616973
  0
LWPOLYLINE
  5
20067
  8
0
100
AcDbEntity
100
AcDbPolyline
 70
0
 90
2
 10
-27251.8802957067
 20
-35189.6802616973
 10
-27251.8802957067
 20
-33689.6802616974
  0
LWPOLYLINE
  5
20068
  8
0
100
AcDbEntity
100
AcDbPolyline
 70
0
 90
2
 10
-27251.8802957067
 20
-33689.6802616974
 10
-25199.6729342503
 20
-33689.6802616974
  0
LWPOLYLINE
  5
20069
  8
0
100
AcDbEntity
100
AcDbPolyline
 70
0
 90
2
 10
-19680.6759893868
 20
-12929.3655481477
 10
-17380.6759893868
 20
-12929.3655481477
  0
LWPOLYLINE
  5
2006A
  8
0
100
AcDbEntity
100
AcDbPolyline
 70
0
 90
2
 10
-19680.6759893868
 20
-15129.3655481477
 10
-19680.6759893868
 20
-12929.3655481477
  0
LWPOLYLINE
  5
2006B
  8
0
100
AcDbEntity
100
AcDbPolyline
 70
0
 90
2
 10
-19680.6759893868
 20
-15129.3655481477
 10
-15620.1015894919
 20
-15129.3655481477
  0
LWPOLYLINE
  5
2006C
  8
0
100
AcDbEntity
100
AcDbPolyline
 70
0
 90
2
 10
-10398.8102745926
 20
-23085.3868956477
 10
-7248.8102745926
 20
-23085.3868956477
  0
LWPOLYLINE
  5
2006D
  8
0
100
AcDbEntity
100
AcDbPolyline
 70
0
 90
2
 10
-10398.8102745926
 20
-23085.3868956477
 10
-10398.8102745926
 20
-20735.3868956477
  0
LWPOLYLINE
  5
2006E
  8
0
100
AcDbEntity
100
AcDbPolyline
 70
0
 90
2
 10
-15620.1015894919
 20
-20735.3868956477
 10
-10398.8102745926
 20
-20735.3868956477
  0
LWPOLYLINE
  5
2006F
  8
0
100
AcDbEntity
100
AcDbPolyline
 70
0
 90
2
 10
-15620.1015894919
 20
-23735.3868956477
 10
-15620.1015894919
 20
-20735.3868956477
  0
LWPOLYLINE
  5
20070
  8
0
100
AcDbEntity
100
AcDbPolyline
 70
0
 90
2
 10
-19701.9941963216
 20
-23735.3868956477
 10
-15620.1015894919
 20
-23735.3868956477
  0
LWPOLYLINE
  5
20071
  8
0
100
AcDbEntity
100
AcDbPolyline
 70
0
 90
2
 10
-30361.9941963216
 20
-20352.0519459626
 10
-30361.9941963216
 20
-17752.0519459626
  0
LWPOLYLINE
  5
20072
  8
0
100
AcDbEntity
100
AcDbPolyline
 70
0
 90
2
 10
-30361.9941963216
 20
-20352.0519459626
 10
-24031.9941963216
 20
-20352.0519459626
  0
LWPOLYLINE
  5
20073
  8
0
100
AcDbEntity
100
AcDbPolyline
 70
0
 90
2
 10
-24031.9941963216
 20
-20352.0519459626
 10
-24031.9941963216
 20
-18422.0519459626
  0
LWPOLYLINE
  5
20074
  8
0
100
AcDbEntity
100
AcDbPolyline
 70
0
 90
2
 10
-24031.9941963216
 20
-18422.0519459626
 10
-18211.9941963216
 20
-18422.0519459626
  0
LWPOLYLINE
  5
20075
  8
0
100
AcDbEntity
100
AcDbPolyline
 70
0
 90
2
 10
-18211.9941963216
 20
-20472.0519459626
 10
-18211.9941963216
 20
-18422.0519459626
  0
LWPOLYLINE
  5
20076
  8
0
100
AcDbEntity
100
AcDbPolyline
 70
0
 90
2
 10
-22361.9941963216
 20
-20472.0519459626
 10
-18211.9941963216
 20
-20472.0519459626
  0
LWPOLYLINE
  5
20077
  8
0
100
AcDbEntity
100
AcDbPolyline
 70
0
 90
2
 10
-22361.9941963216
 20
-28222.0519459626
 10
-22361.9941963216
 20
-20472.0519459626
  0
LWPOLYLINE
  5
20078
  8
0
100
AcDbEntity
100
AcDbPolyline
 70
0
 90
2
 10
-23411.9941963216
 20
-28222.0519459626
 10
-22361.9941963216
 20
-28222.0519459626
  0
LWPOLYLINE
  5
20079
  8
0
100
AcDbEntity
100
AcDbPolyline
 70
0
 90
2
 10
-25199.6729342503
 20
-29969.6802616974
 10
-23411.9941963216
 20
-28222.0519459626
  0
LWPOLYLINE
  5
2007A
  8
0
100
AcDbEntity
100
AcDbPolyline
 70
0
 90
2
 10
-25199.6729342503
 20
-30419.6802616974
 10
-25199.6729342503
 20
-29969.6802616974
  0
LWPOLYLINE
  5
2007B
  8
0
100
AcDbEntity
100
AcDbPolyline
 70
0
 90
2
 10
-35889.4807703965
 20
-30419.6802616974
 10
-25199.6729342503
 20
-30419.6802616974
  0
LWPOLYLINE
  5
2007C
  8
0
100
AcDbEntity
100
AcDbPolyline
 70
0
 90
2
 10
-35889.4807703965
 20
-30419.6802616974
 10
-35889.4807703965
 20
-25901.1478856421
  0
LWPOLYLINE
  5
2007D
  8
0
100
AcDbEntity
100
AcDbPolyline
 70
0
 90
2
 10
-19701.9941963216
 20
-28222.0519459626
 10
-19701.9941963216
 20
-23735.3868956477
  0
LWPOLYLINE
  5
2007E
  8
0
100
AcDbEntity
100
AcDbPolyline
 70
0
 90
2
 10
-48220.4291430885
 20
-14870.7339125497
 10
-48220.4291430885
 20
-10720.7339125497
  0
LWPOLYLINE
  5
2007F
  8
0
100
AcDbEntity
100
AcDbPolyline
 70
0
 90
2
 10
-48220.4291430885
 20
-14870.7339125497
 10
-43901.1478800793
 20
-19151.1478856421
  0
LWPOLYLINE
  5
20080
  8
0
100
AcDbEntity
100
AcDbPolyline
 70
0
 90
2
 10
-44846.3715919603
 20
83.3158295710682
 10
-33946.3715919603
 20
83.3158295710682
  0
LWPOLYLINE
  5
20081
  8
0
100
AcDbEntity
100
AcDbPolyline
 70
0
 90
2
 10
-33946.3715919603
 20
83.3158295710682
 10
-28985.1215269549
 20
-4854.90224909698
  0
LWPOLYLINE
  5
20082
  8
0
100
AcDbEntity
100
AcDbPolyline
 70
0
 90
2
 10
-4354.33222747896
 20
-20817.8854900173
 10
-4354.33222747896
 20
-17437.8854900173
  0
LWPOLYLINE
  5
20083
  8
0
100
AcDbEntity
100
AcDbPolyline
 70
0
 90
2
 10
-7248.8102745926
 20
-23085.3868956477
 10
-4354.33222747896
 20
-20817.8854900173
  0
LWPOLYLINE
  5
20084
  8
0
100
AcDbEntity
100
AcDbPolyline
 70
0
 90
2
 10
-15620.1015894919
 20
-17429.3655481477
 10
-15620.1015894919
 20
-15129.3655481477
  0
LWPOLYLINE
  5
20085
  8
0
100
AcDbEntity
100
AcDbPolyline
 70
0
 90
2
 10
-15620.1015894919
 20
-17429.3655481477
 10
-10470.1015894919
 20
-17429.3655481477
  0
LWPOLYLINE
  5
20086
  8
0
100
AcDbEntity
100
AcDbPolyline
 70
0
 90
2
 10
-10470.1015894919
 20
-17429.3655481477
 10
-10470.1015894919
 20
-15049.3655481477
  0
LWPOLYLINE
  5
20087
  8
0
100
AcDbEntity
100
AcDbPolyline
 70
0
 90
2
 10
-10470.1015894919
 20
-15049.3655481477
 10
-7180.10158949191
 20
-15049.3655481477
  0
LWPOLYLINE
  5
20088
  8
0
100
AcDbEntity
100
AcDbPolyline
 70
0
 90
2
 10
-7180.10158949191
 20
-15049.3655481477
 10
-4354.33222747896
 20
-17437.8854900173
  0
LWPOLYLINE
  5
20089
  8
0
100
AcDbEntity
100
AcDbPolyline
 70
0
 90
2
 10
-19701.9941963216
 20
-28222.0519459626
 10
-17301.9941963216
 20
-28222.0519459626
  0
LWPOLYLINE
  5
2008A
  8
0
100
AcDbEntity
100
AcDbPolyline
 70
0
 90
2
 10
-17301.9941963216
 20
-33561.7709040644
 10
-17301.9941963216
 20
-28222.0519459626
  0
LWPOLYLINE
  5
2008B
  8
0
100
AcDbEntity
100
AcDbPolyline
 70
0
 90
2
 10
-21049.6729342503
 20
-37239.6802616973
 10
-17301.9941963216
 20
-33561.7709040644
  0
LWPOLYLINE
  5
2008C
  8
0
100
AcDbEntity
100
AcDbPolyline
 70
0
 90
2
 10
-25199.6729342503
 20
-37189.6802616974
 10
-25199.6729342503
 20
-33689.6802616974
  0
LWPOLYLINE
  5
2008D
  8
0
100
AcDbEntity
100
AcDbPolyline
 70
0
 90
2
 10
-25199.6729342503
 20
-37239.6802616973
 10
-25199.6729342503
 20
-37189.6802616974
  0
LWPOLYLINE
  5
2008E
  8
0
100
AcDbEntity
100
AcDbPolyline
 70
0
 90
2
 10
-25199.6729342503
 20
-37239.6802616973
 10
-21049.6729342503
 20
-37239.6802616973
  0
LWPOLYLINE
  5
2008F
  8
0
100
AcDbEntity
100
AcDbPolyline
 70
0
 90
2
 10
-37371.1478800793
 20
-21651.1478856421
 10
-37371.1478800793
 20
-19151.1478856421
  0
LWPOLYLINE
  5
20090
  8
0
100
AcDbEntity
100
AcDbPolyline
 70
0
 90
2
 10
-37371.1478800793
 20
-19151.1478856421
 10
-33321.4260517266
 20
-19151.1478856421
  0
LWPOLYLINE
  5
20091
  8
0
100
AcDbEntity
100
AcDbPolyline
 70
0
 90
2
 10
-33321.4260517266
 20
-19151.1478856421
 10
-28985.1215269549
 20
-14749.902249097
  0
LWPOLYLINE
  5
20092
  8
0
100
AcDbEntity
100
AcDbPolyline
 70
0
 90
2
 10
-28985.1215269549
 20
-14749.902249097
 10
-28985.1215269549
 20
-10704.902249097
  0
LWPOLYLINE
  5
20093
  8
0
100
AcDbEntity
100
AcDbPolyline
 70
0
 90
2
 10
-71262.1099499394
 20
-12948.0005567808
 10
-71262.1099499394
 20
-6929.04101740799
  0
LWPOLYLINE
  5
20094
  8
0
100
AcDbEntity
100
AcDbPolyline
 70
0
 90
2
 10
-71262.1099499394
 20
-6929.04101740799
 10
-69170.4291430885
 20
-5320.73391254971
  0
LWPOLYLINE
  5
20095
  8
0
100
AcDbEntity
100
AcDbPolyline
 70
0
 90
2
 10
-71243.2767500703
 20
-34000.3582678046
 10
-71243.2767500703
 20
-28388.3340766712
  0
LWPOLYLINE
  5
20096
  8
0
100
AcDbEntity
100
AcDbPolyline
 70
0
 90
2
 10
-49426.4137298385
 20
-16513.6130822748
 10
-46528.923281716
 20
-19414.3973043497
  0
LWPOLYLINE
  5
20097
  8
0
100
AcDbEntity
100
AcDbPolyline
 70
0
 90
2
 10
-49426.4137298385
 20
-16513.6130822748
 10
-49426.4137298385
 20
-11970.7339125497
  0
LWPOLYLINE
  5
20098
  8
0
100
AcDbEntity
100
AcDbPolyline
 70
0
 90
2
 10
-51920.4291430884
 20
-11970.7339125497
 10
-49426.4137298385
 20
-11970.7339125497
  0
LWPOLYLINE
  5
20099
  8
0
100
AcDbEntity
100
AcDbPolyline
 70
0
 90
2
 10
-57127.4366310744
 20
-34467.4493154121
 10
-55227.4366310744
 20
-34467.4493154121
  0
LWPOLYLINE
  5
2009A
  8
0
100
AcDbEntity
100
AcDbPolyline
 70
0
 90
2
 10
-55227.4366310744
 20
-34467.4493154121
 10
-55227.4366310744
 20
-27817.4493154121
  0
LWPOLYLINE
  5
2009B
  8
0
100
AcDbEntity
100
AcDbPolyline
 70
0
 90
2
 10
-55227.4366310744
 20
-27817.4493154121
 10
-55227.4366310744
 20
-27117.4493154121
  0
LWPOLYLINE
  5
2009C
  8
0
100
AcDbEntity
100
AcDbPolyline
 70
0
 90
2
 10
-63227.4366310744
 20
-29567.4493154121
 10
-63227.4366310744
 20
-26688.3340766712
  0
LWPOLYLINE
  5
2009D
  8
0
100
AcDbEntity
100
AcDbPolyline
 70
0
 90
2
 10
-65420.4291430884
 20
-26688.3340766712
 10
-63227.4366310744
 20
-26688.3340766712
  0
LWPOLYLINE
  5
2009E
  8
0
100
AcDbEntity
100
AcDbPolyline
 70
0
 90
2
 10
-62530.4291430885
 20
-21978.0005567808
 10
-62530.4291430884
 20
-24087.255364545
  0
LWPOLYLINE
  5
2009F
  8
0
100
AcDbEntity
100
AcDbPolyline
 70
0
 90
2
 10
-58130.4291430884
 20
-24087.255364545
 10
-58130.4291430884
 20
-16287.2553645449
  0
LWPOLYLINE
  5
200A0
  8
0
100
AcDbEntity
100
AcDbPolyline
 70
0
 90
2
 10
-62530.4291430884
 20
-24087.255364545
 10
-58130.4291430884
 20
-24087.255364545
  0
LWPOLYLINE
  5
200A1
  8
0
100
AcDbEntity
100
AcDbPolyline
 70
0
 90
2
 10
-68112.1099499394
 20
-18678.0005567808
 10
-68112.1099499394
 20
-14176.4979608516
  0
LWPOLYLINE
  5
200A2
  8
0
100
AcDbEntity
100
AcDbPolyline
 70
0
 90
2
 10
-71262.1099499394
 20
-14176.4979608516
 10
-68112.1099499394
 20
-14176.4979608516
  0
LWPOLYLINE
  5
200A3
  8
0
100
AcDbEntity
100
AcDbPolyline
 70
0
 90
2
 10
-71262.1099499394
 20
-14176.4979608516
 10
-71262.1099499394
 20
-12948.0005567808
  0
ENDSEC
  0
SECTION
  2
OBJECTS
  0
DICTIONARY
  5
C
330
0
100
AcDbDictionary
281
     1
  3
ACAD_GROUP
350
D
  0
DICTIONARY
  5
D
102
{ACAD_REACTORS
330
C
102
}
330
C
100
AcDbDictionary
281
     1
  0
ENDSEC
  0
EOF
