  0
SECTION
  2
HEADER
  9
$ACADVER
  1
AC1018
  9
$ACADMAINTVER
 70
     0
  9
$DWGCODEPAGE
  3
ANSI_1252
  9
$EXTMIN
 10
-78137.3974111523
 20
-41789.6802616973
 30
0.0
  9
$EXTMAX
 10
-4354.33222747896
 20
83.3158295710682
 30
0.0
  9
$LIMMIN
 10
0.0
 20
0.0
  9
$LIMMAX
 10
12.0
 20
9.0
  9
$ORTHOMODE
 70
     0
  9
$REGENMODE
 70
     1
  9
$FILLMODE
 70
     1
  9
$QTEXTMODE
 70
     0
  9
$MIRRTEXT
 70
     1
  9
$LTSCALE
 40
1.0
  9
$ATTMODE
 70
     1
  9
$TEXTSIZE
 40
0.2
  9
$TRACEWID
 40
0.05
  9
$TEXTSTYLE
  7
Standard
  9
$CLAYER
  8
0
  9
$CELTYPE
  6
ByLayer
  9
$CECOLOR
 62
   256
  9
$CELTSCALE
 40
1.0
  9
$DISPSILH
 70
     0
  9
$LUNITS
 70
     2
  9
$LUPREC
 70
     4
  9
$SKETCHINC
 40
0.1
  9
$FILLETRAD
 40
0.5
  9
$AUNITS
 70
     0
  9
$AUPREC
 70
     0
  9
$MENU
  1
.
  9
$ELEVATION
 40
0.0
  9
$PELEVATION
 40
0.0
  9
$THICKNESS
 40
0.0
  9
$LIMCHECK
 70
     0
  9
$CHAMFERA
 40
0.5
  9
$CHAMFERB
 40
0.5
  9
$CHAMFERC
 40
1.0
  9
$CHAMFERD
 40
0.0
  9
$SKPOLY
 70
     0
  9
$TDCREATE
 40
2455343.56230316
  9
$TDUCREATE
 40
2455343.728969826
  9
$TDUPDATE
 40
2455343.562303171
  9
$TDUUPDATE
 40
2455343.728969838
  9
$TDINDWG
 40
0.0000000116
  9
$TDUSRTIMER
 40
0.0000000116
  9
$USRTIMER
 70
     1
  9
$ANGBASE
 50
0.0
  9
$ANGDIR
 70
     0
  9
$PDMODE
 70
     0
  9
$PDSIZE
 40
0.0
  9
$PLINEWID
 40
0.0
  9
$SPLFRAME
 70
     0
  9
$SPLINETYPE
 70
     6
  9
$SPLINESEGS
 70
     8
  9
$HANDSEED
  5
00020141
  9
$SURFTAB1
 70
     6
  9
$SURFTAB2
 70
     6
  9
$SURFTYPE
 70
     6
  9
$SURFU
 70
     6
  9
$SURFV
 70
     6
  9
$UCSBASE
  2

  9
$UCSNAME
  2

  9
$UCSORG
 10
0.0
 20
0.0
 30
0.0
  9
$UCSXDIR
 10
1.0
 20
0.0
 30
0.0
  9
$UCSYDIR
 10
0.0
 20
1.0
 30
0.0
  9
$UCSORTHOREF
  2

  9
$UCSORTHOVIEW
 70
     0
  9
$UCSORGTOP
 10
0.0
 20
0.0
 30
0.0
  9
$UCSORGBOTTOM
 10
0.0
 20
0.0
 30
0.0
  9
$UCSORGLEFT
 10
0.0
 20
0.0
 30
0.0
  9
$UCSORGRIGHT
 10
0.0
 20
0.0
 30
0.0
  9
$UCSORGFRONT
 10
0.0
 20
0.0
 30
0.0
  9
$UCSORGBACK
 10
0.0
 20
0.0
 30
0.0
  9
$PUCSBASE
  2

  9
$PUCSNAME
  2

  9
$PUCSORG
 10
0.0
 20
0.0
 30
0.0
  9
$PUCSXDIR
 10
1.0
 20
0.0
 30
0.0
  9
$PUCSYDIR
 10
0.0
 20
1.0
 30
0.0
  9
$PUCSORTHOREF
  2

  9
$PUCSORTHOVIEW
 70
     0
  9
$PUCSORGTOP
 10
0.0
 20
0.0
 30
0.0
  9
$PUCSORGBOTTOM
 10
0.0
 20
0.0
 30
0.0
  9
$PUCSORGLEFT
 10
0.0
 20
0.0
 30
0.0
  9
$PUCSORGRIGHT
 10
0.0
 20
0.0
 30
0.0
  9
$PUCSORGFRONT
 10
0.0
 20
0.0
 30
0.0
  9
$PUCSORGBACK
 10
0.0
 20
0.0
 30
0.0
  9
$WORLDVIEW
 70
     1
  9
$SHADEDGE
 70
     3
  9
$SHADEDIF
 70
    70
  9
$TILEMODE
 70
     1
  9
$MAXACTVP
 70
    64
  9
$PINSBASE
 10
0.0
 20
0.0
 30
0.0
  9
$PLIMCHECK
 70
     0
  9
$PEXTMIN
 10
1.000000000000000E+20
 20
1.000000000000000E+20
 30
1.000000000000000E+20
  9
$PEXTMAX
 10
-1.000000000000000E+20
 20
-1.000000000000000E+20
 30
-1.000000000000000E+20
  9
$PLIMMIN
 10
0.0
 20
0.0
  9
$PLIMMAX
 10
12.0
 20
9.0
  9
$UNITMODE
 70
     0
  9
$VISRETAIN
 70
     1
  9
$PLINEGEN
 70
     0
  9
$PSLTSCALE
 70
     1
  9
$TREEDEPTH
 70
  3020
  9
$CMLSTYLE
  2
Standard
  9
$CMLJUST
 70
     0
  9
$CMLSCALE
 40
1.0
  9
$PROXYGRAPHICS
 70
     1
  9
$MEASUREMENT
 70
     0
  9
$CELWEIGHT
370
    -1
  9
$ENDCAPS
280
     0
  9
$JOINSTYLE
280
     0
  9
$LWDISPLAY
290
     0
  9
$INSUNITS
 70
     1
  9
$HYPERLINKBASE
  1

  9
$STYLESHEET
  1

  9
$XEDIT
290
     1
  9
$CEPSNTYPE
380
     0
  9
$PSTYLEMODE
290
     1
  9
$FINGERPRINTGUID
  2
{E7F7769E-AACA-40AB-9EF3-61BBAFBCBA26}
  9
$VERSIONGUID
  2
{FAEB1C32-E019-11D5-929B-00C0DF256EC4}
  9
$EXTNAMES
290
     1
  9
$PSVPSCALE
 40
0.0
  9
$OLESTARTUP
290
     0
  9
$SORTENTS
280
   127
  9
$INDEXCTL
280
     0
  9
$HIDETEXT
280
     1
  9
$XCLIPFRAME
290
     0
  9
$HALOGAP
280
     0
  9
$OBSCOLOR
 70
   257
  9
$OBSLTYPE
280
     0
  9
$INTERSECTIONDISPLAY
280
     0
  9
$INTERSECTIONCOLOR
 70
   257
  9
$DIMASSOC
280
     2
  9
$PROJECTNAME
  1

  0
ENDSEC
  0
SECTION
  2
CLASSES
  0
CLASS
  1
ACDBDICTIONARYWDFLT
  2
AcDbDictionaryWithDefault
  3
ObjectDBX Classes
 90
        0
 91
        4
280
     0
281
     0
  0
CLASS
  1
VISUALSTYLE
  2
AcDbVisualStyle
  3
ObjectDBX Classes
 90
     4095
 91
        4
280
     0
281
     0
  0
ENDSEC
  0
SECTION
  2
TABLES
  0
TABLE
  2
VPORT
  5
8
330
0
100
AcDbSymbolTable
 70
     1
  0
VPORT
  5
29
330
8
100
AcDbSymbolTableRecord
100
AcDbViewportTableRecord
  2
*Active
 70
     0
 10
0.0
 20
0.0
 11
1.0
 21
1.0
 12
80.25
 22
106.4409457059851
 13
0.0
 23
0.0
 14
0.5
 24
0.5
 15
0.5
 25
0.5
 16
0.0
 26
0.0
 36
1.0
 17
0.0
 27
0.0
 37
0.0
 40
113.3818914119703
 41
0.8863849310366128
 42
50.0
 43
0.0
 44
0.0
 50
0.0
 51
0.0
 71
     0
 72
  1000
 73
     1
 74
     3
 75
     0
 76
     0
 77
     0
 78
     0
281
     0
 65
     1
110
0.0
120
0.0
130
0.0
111
1.0
121
0.0
131
0.0
112
0.0
122
1.0
132
0.0
 79
     0
146
0.0
  0
ENDTAB
  0
TABLE
  2
LTYPE
  5
5
330
0
100
AcDbSymbolTable
 70
     1
  0
LTYPE
  5
14
330
5
100
AcDbSymbolTableRecord
100
AcDbLinetypeTableRecord
  2
ByBlock
 70
     0
  3

 72
    65
 73
     0
 40
0.0
  0
LTYPE
  5
15
330
5
100
AcDbSymbolTableRecord
100
AcDbLinetypeTableRecord
  2
ByLayer
 70
     0
  3

 72
    65
 73
     0
 40
0.0
  0
LTYPE
  5
16
330
5
100
AcDbSymbolTableRecord
100
AcDbLinetypeTableRecord
  2
Continuous
 70
     0
  3
Solid line
 72
    65
 73
     0
 40
0.0
  0
ENDTAB
  0
TABLE
  2
LAYER
  5
2
330
0
100
AcDbSymbolTable
 70
     1
  0
LAYER
  5
10
330
2
100
AcDbSymbolTableRecord
100
AcDbLayerTableRecord
  2
0
 70
     0
 62
     7
  6
Continuous
370
    -3
390
F
  0
ENDTAB
  0
TABLE
  2
STYLE
  5
3
330
0
100
AcDbSymbolTable
 70
     1
  0
STYLE
  5
11
330
3
100
AcDbSymbolTableRecord
100
AcDbTextStyleTableRecord
  2
Standard
 70
     0
 40
0.0
 41
1.0
 50
0.0
 71
     0
 42
0.2
  3
txt
  4

  0
ENDTAB
  0
TABLE
  2
VIEW
  5
6
330
0
100
AcDbSymbolTable
 70
     0
  0
ENDTAB
  0
TABLE
  2
UCS
  5
7
330
0
100
AcDbSymbolTable
 70
     0
  0
ENDTAB
  0
TABLE
  2
APPID
  5
9
330
0
100
AcDbSymbolTable
 70
     1
  0
APPID
  5
12
330
9
100
AcDbSymbolTableRecord
100
AcDbRegAppTableRecord
  2
ACAD
 70
     0
  0
ENDTAB
  0
TABLE
  2
DIMSTYLE
  5
A
330
0
100
AcDbSymbolTable
 70
     1
100
AcDbDimStyleTable
  0
DIMSTYLE
105
27
330
A
100
AcDbSymbolTableRecord
100
AcDbDimStyleTableRecord
  2
Standard
 70
     0
340
11
  0
ENDTAB
  0
TABLE
  2
BLOCK_RECORD
  5
1
330
0
100
AcDbSymbolTable
 70
     1
  0
BLOCK_RECORD
  5
1F
330
1
100
AcDbSymbolTableRecord
100
AcDbBlockTableRecord
  2
*Model_Space
340
22
  0
BLOCK_RECORD
  5
1B
330
1
100
AcDbSymbolTableRecord
100
AcDbBlockTableRecord
  2
*Paper_Space
340
1E
  0
BLOCK_RECORD
  5
23
330
1
100
AcDbSymbolTableRecord
100
AcDbBlockTableRecord
  2
*Paper_Space0
340
26
  0
ENDTAB
  0
ENDSEC
  0
SECTION
  2
BLOCKS
  0
BLOCK
  5
20
330
1F
100
AcDbEntity
  8
0
100
AcDbBlockBegin
  2
*Model_Space
 70
     0
 10
0.0
 20
0.0
 30
0.0
  3
*Model_Space
  1

  0
ENDBLK
  5
21
330
1F
100
AcDbEntity
  8
0
100
AcDbBlockEnd
  0
BLOCK
  5
1C
330
1B
100
AcDbEntity
 67
     1
  8
0
100
AcDbBlockBegin
  2
*Paper_Space
 70
     0
 10
0.0
 20
0.0
 30
0.0
  3
*Paper_Space
  1

  0
ENDBLK
  5
1D
330
1B
100
AcDbEntity
 67
     1
  8
0
100
AcDbBlockEnd
  0
BLOCK
  5
24
330
23
100
AcDbEntity
  8
0
100
AcDbBlockBegin
  2
*Paper_Space0
 70
     0
 10
0.0
 20
0.0
 30
0.0
  3
*Paper_Space0
  1

  0
ENDBLK
  5
25
330
23
100
AcDbEntity
  8
0
100
AcDbBlockEnd
  0
ENDSEC
  0
SECTION
  2
ENTITIES
  0
LWPOLYLINE
  5
20000
  8
0
100
AcDbEntity
100
AcDbPolyline
 70
0
 90
2
 10
-48220.4291430885
 20
-7420.73391254971
 10
-63220.4291430885
 20
-7420.73391254971
  0
LWPOLYLINE
  5
20001
  8
0
100
AcDbEntity
100
AcDbPolyline
 70
0
 90
2
 10
-63220.4291430885
 20
-7420.73391254971
 10
-63220.4291430885
 20
-5320.73391254971
  0
LWPOLYLINE
  5
20002
  8
0
100
AcDbEntity
100
AcDbPolyline
 70
0
 90
2
 10
-63220.4291430885
 20
-5320.73391254971
 10
-69170.4291430885
 20
-5320.73391254971
  0
LWPOLYLINE
  5
20003
  8
0
100
AcDbEntity
100
AcDbPolyline
 70
0
 90
2
 10
-71262.1099499395
 20
-6929.04101740798
 10
-70105.6029018711
 20
-7866.49796085163
  0
LWPOLYLINE
  5
20004
  8
0
100
AcDbEntity
100
AcDbPolyline
 70
0
 90
2
 10
-70105.6029018711
 20
-7866.49796085163
 10
-65953.8591100151
 20
-7866.49796085163
  0
LWPOLYLINE
  5
20005
  8
0
100
AcDbEntity
100
AcDbPolyline
 70
0
 90
2
 10
-65953.8591100151
 20
-12016.4979608516
 10
-68855.6029018711
 20
-12016.4979608516
  0
LWPOLYLINE
  5
20006
  8
0
100
AcDbEntity
100
AcDbPolyline
 70
0
 90
2
 10
-68855.6029018711
 20
-12016.4979608516
 10
-69612.1099499394
 20
-12948.0005567808
  0
LWPOLYLINE
  5
20007
  8
0
100
AcDbEntity
100
AcDbPolyline
 70
0
 90
2
 10
-69612.1099499394
 20
-12948.0005567808
 10
-71262.1099499394
 20
-12948.0005567808
  0
LWPOLYLINE
  5
20008
  8
0
100
AcDbEntity
100
AcDbPolyline
 70
0
 90
2
 10
-68112.1099499394
 20
-18678.0005567808
 10
-70662.1099499394
 20
-18678.0005567808
  0
LWPOLYLINE
  5
20009
  8
0
100
AcDbEntity
100
AcDbPolyline
 70
0
 90
2
 10
-70662.1099499394
 20
-18678.0005567808
 10
-70662.1099499394
 20
-16128.0005567808
  0
LWPOLYLINE
  5
2000A
  8
0
100
AcDbEntity
100
AcDbPolyline
 70
0
 90
2
 10
-70662.1099499394
 20
-16128.0005567808
 10
-70662.1099499394
 20
-17027.8098564744
  0
LWPOLYLINE
  5
2000B
  8
0
100
AcDbEntity
100
AcDbPolyline
 70
0
 90
2
 10
-70662.1099499394
 20
-17027.8098564744
 10
-70662.1099499394
 20
-17027.8098564744
  0
LWPOLYLINE
  5
2000C
  8
0
100
AcDbEntity
100
AcDbPolyline
 70
0
 90
2
 10
-70662.1099499394
 20
-17027.8098564744
 10
-70662.1099499394
 20
-17027.8098564744
  0
LWPOLYLINE
  5
2000D
  8
0
100
AcDbEntity
100
AcDbPolyline
 70
0
 90
2
 10
-70662.1099499394
 20
-17027.8098564744
 10
-70662.1099499394
 20
-17027.8098564744
  0
LWPOLYLINE
  5
2000E
  8
0
100
AcDbEntity
100
AcDbPolyline
 70
0
 90
2
 10
-70662.1099499394
 20
-16128.0005567808
 10
-73412.1099499394
 20
-16128.0005567808
  0
LWPOLYLINE
  5
2000F
  8
0
100
AcDbEntity
100
AcDbPolyline
 70
0
 90
2
 10
-73412.1099499394
 20
-16128.0005567808
 10
-73412.1099499394
 20
-13178.0005567808
  0
LWPOLYLINE
  5
20010
  8
0
100
AcDbEntity
100
AcDbPolyline
 70
0
 90
2
 10
-73412.1099499394
 20
-13178.0005567808
 10
-75162.1099499394
 20
-13178.0005567808
  0
LWPOLYLINE
  5
20011
  8
0
100
AcDbEntity
100
AcDbPolyline
 70
0
 90
2
 10
-75162.1099499394
 20
-13178.0005567808
 10
-78137.3974111523
 20
-15204.7379653144
  0
LWPOLYLINE
  5
20012
  8
0
100
AcDbEntity
100
AcDbPolyline
 70
0
 90
2
 10
-78137.3974111523
 20
-15204.7379653144
 10
-78137.3974111523
 20
-25104.7379653144
  0
LWPOLYLINE
  5
20013
  8
0
100
AcDbEntity
100
AcDbPolyline
 70
0
 90
2
 10
-78137.3974111523
 20
-25104.7379653144
 10
-75193.2767500703
 20
-27088.3340766712
  0
LWPOLYLINE
  5
20014
  8
0
100
AcDbEntity
100
AcDbPolyline
 70
0
 90
2
 10
-75193.2767500703
 20
-27088.3340766712
 10
-73443.2767500703
 20
-27088.3340766712
  0
LWPOLYLINE
  5
20015
  8
0
100
AcDbEntity
100
AcDbPolyline
 70
0
 90
2
 10
-73443.2767500703
 20
-27088.3340766712
 10
-73443.2767500703
 20
-24188.3340766712
  0
LWPOLYLINE
  5
20016
  8
0
100
AcDbEntity
100
AcDbPolyline
 70
0
 90
2
 10
-73443.2767500703
 20
-24188.3340766712
 10
-70743.2767500703
 20
-24188.3340766712
  0
LWPOLYLINE
  5
20017
  8
0
100
AcDbEntity
100
AcDbPolyline
 70
0
 90
2
 10
-70743.2767500703
 20
-24188.3340766712
 10
-70743.2767500703
 20
-21938.3340766712
  0
LWPOLYLINE
  5
20018
  8
0
100
AcDbEntity
100
AcDbPolyline
 70
0
 90
2
 10
-70743.2767500703
 20
-21938.3340766712
 10
-68043.2767500703
 20
-21938.3340766712
  0
LWPOLYLINE
  5
20019
  8
0
100
AcDbEntity
100
AcDbPolyline
 70
0
 90
2
 10
-68043.2767500703
 20
-21938.3340766712
 10
-68043.2767500703
 20
-26688.3340766712
  0
LWPOLYLINE
  5
2001A
  8
0
100
AcDbEntity
100
AcDbPolyline
 70
0
 90
2
 10
-68043.2767500703
 20
-26688.3340766712
 10
-71243.2767500703
 20
-26688.3340766712
  0
LWPOLYLINE
  5
2001B
  8
0
100
AcDbEntity
100
AcDbPolyline
 70
0
 90
2
 10
-71243.2767500703
 20
-26688.3340766712
 10
-71243.2767500703
 20
-34000.3582678046
  0
LWPOLYLINE
  5
2001C
  8
0
100
AcDbEntity
100
AcDbPolyline
 70
0
 90
2
 10
-71243.2767500703
 20
-28388.3340766712
 10
-70743.2767500703
 20
-28388.3340766712
  0
LWPOLYLINE
  5
2001D
  8
0
100
AcDbEntity
100
AcDbPolyline
 70
0
 90
2
 10
-70743.2767500703
 20
-28388.3340766712
 10
-70024.4622368248
 20
-29083.5359865849
  0
LWPOLYLINE
  5
2001E
  8
0
100
AcDbEntity
100
AcDbPolyline
 70
0
 90
2
 10
-70024.4622368248
 20
-29083.5359865849
 10
-65924.4622368248
 20
-29083.5359865849
  0
LWPOLYLINE
  5
2001F
  8
0
100
AcDbEntity
100
AcDbPolyline
 70
0
 90
2
 10
-65924.4622368248
 20
-29083.5359865849
 10
-65272.9059303331
 20
-29704.4018170756
  0
LWPOLYLINE
  5
20020
  8
0
100
AcDbEntity
100
AcDbPolyline
 70
0
 90
2
 10
-65272.9059303331
 20
-29704.4018170756
 10
-64858.7587567104
 20
-31093.9996432758
  0
LWPOLYLINE
  5
20021
  8
0
100
AcDbEntity
100
AcDbPolyline
 70
0
 90
2
 10
-65924.4622368248
 20
-33104.4632999668
 10
-65272.9059303331
 20
-32483.597469476
  0
LWPOLYLINE
  5
20022
  8
0
100
AcDbEntity
100
AcDbPolyline
 70
0
 90
2
 10
-65272.9059303331
 20
-32483.597469476
 10
-64858.7587567104
 20
-31093.9996432758
  0
LWPOLYLINE
  5
20023
  8
0
100
AcDbEntity
100
AcDbPolyline
 70
0
 90
2
 10
-65924.4622368248
 20
-33104.4632999668
 10
-69124.4622368248
 20
-33104.4632999668
  0
LWPOLYLINE
  5
20024
  8
0
100
AcDbEntity
100
AcDbPolyline
 70
0
 90
2
 10
-69124.4622368248
 20
-33104.4632999668
 10
-69124.4622368248
 20
-33604.4632999668
  0
LWPOLYLINE
  5
20025
  8
0
100
AcDbEntity
100
AcDbPolyline
 70
0
 90
2
 10
-69124.4622368248
 20
-33604.4632999668
 10
-69575.3138470478
 20
-34000.3582678046
  0
LWPOLYLINE
  5
20026
  8
0
100
AcDbEntity
100
AcDbPolyline
 70
0
 90
2
 10
-71243.2767500703
 20
-34000.3582678046
 10
-69227.4366310744
 20
-35567.4493154121
  0
LWPOLYLINE
  5
20027
  8
0
100
AcDbEntity
100
AcDbPolyline
 70
0
 90
2
 10
-69227.4366310744
 20
-35567.4493154121
 10
-63227.4366310744
 20
-35567.4493154121
  0
LWPOLYLINE
  5
20028
  8
0
100
AcDbEntity
100
AcDbPolyline
 70
0
 90
2
 10
-63227.4366310744
 20
-35567.4493154121
 10
-63227.4366310744
 20
-32867.4493154121
  0
LWPOLYLINE
  5
20029
  8
0
100
AcDbEntity
100
AcDbPolyline
 70
0
 90
2
 10
-48220.4291430885
 20
-10720.7339125497
 10
-51920.4291430884
 20
-10720.7339125497
  0
LWPOLYLINE
  5
2002A
  8
0
100
AcDbEntity
100
AcDbPolyline
 70
0
 90
2
 10
-63220.4291430885
 20
-14176.4979608516
 10
-63220.4291430885
 20
-10720.7339125497
  0
LWPOLYLINE
  5
2002B
  8
0
100
AcDbEntity
100
AcDbPolyline
 70
0
 90
2
 10
-63220.4291430885
 20
-14176.4979608516
 10
-65420.4291430884
 20
-14176.4979608516
  0
LWPOLYLINE
  5
2002C
  8
0
100
AcDbEntity
100
AcDbPolyline
 70
0
 90
2
 10
-65420.4291430884
 20
-14176.4979608516
 10
-65420.4291430884
 20
-18678.0005567808
  0
LWPOLYLINE
  5
2002D
  8
0
100
AcDbEntity
100
AcDbPolyline
 70
0
 90
2
 10
-65420.4291430884
 20
-18678.0005567808
 10
-62530.4291430885
 20
-18678.0005567808
  0
LWPOLYLINE
  5
2002E
  8
0
100
AcDbEntity
100
AcDbPolyline
 70
0
 90
2
 10
-62530.4291430885
 20
-18678.0005567808
 10
-62530.4291430885
 20
-16578.0005567808
  0
LWPOLYLINE
  5
2002F
  8
0
100
AcDbEntity
100
AcDbPolyline
 70
0
 90
2
 10
-62530.4291430885
 20
-16578.0005567808
 10
-60987.3808714036
 20
-15009.8800157348
  0
LWPOLYLINE
  5
20030
  8
0
100
AcDbEntity
100
AcDbPolyline
 70
0
 90
2
 10
-60987.3808714036
 20
-15009.8800157348
 10
-59387.3808714036
 20
-15009.8800157348
  0
LWPOLYLINE
  5
20031
  8
0
100
AcDbEntity
100
AcDbPolyline
 70
0
 90
2
 10
-58130.4291430884
 20
-16287.2553645449
 10
-59387.3808714036
 20
-15009.8800157348
  0
LWPOLYLINE
  5
20032
  8
0
100
AcDbEntity
100
AcDbPolyline
 70
0
 90
2
 10
-65953.8591100151
 20
-7866.49796085163
 10
-65234.5763167112
 20
-8551.90013465143
  0
LWPOLYLINE
  5
20033
  8
0
100
AcDbEntity
100
AcDbPolyline
 70
0
 90
2
 10
-65234.5763167112
 20
-8551.90013465143
 10
-64820.4291430884
 20
-9941.49796085163
  0
LWPOLYLINE
  5
20034
  8
0
100
AcDbEntity
100
AcDbPolyline
 70
0
 90
2
 10
-65953.8591100151
 20
-12016.4979608516
 10
-65234.5763167112
 20
-11331.0957870518
  0
LWPOLYLINE
  5
20035
  8
0
100
AcDbEntity
100
AcDbPolyline
 70
0
 90
2
 10
-65234.5763167112
 20
-11331.0957870518
 10
-64820.4291430884
 20
-9941.49796085163
  0
LWPOLYLINE
  5
20036
  8
0
100
AcDbEntity
100
AcDbPolyline
 70
0
 90
2
 10
-65420.4291430884
 20
-21978.0005567808
 10
-62530.4291430885
 20
-21978.0005567808
  0
LWPOLYLINE
  5
20037
  8
0
100
AcDbEntity
100
AcDbPolyline
 70
0
 90
2
 10
-65420.4291430884
 20
-21978.0005567808
 10
-65420.4291430884
 20
-26688.3340766712
  0
LWPOLYLINE
  5
20038
  8
0
100
AcDbEntity
100
AcDbPolyline
 70
0
 90
2
 10
-63227.4366310744
 20
-32867.4493154121
 10
-59777.4366310744
 20
-32867.4493154121
  0
LWPOLYLINE
  5
20039
  8
0
100
AcDbEntity
100
AcDbPolyline
 70
0
 90
2
 10
-59777.4366310744
 20
-32867.4493154121
 10
-59777.4366310744
 20
-37717.4493154121
  0
LWPOLYLINE
  5
2003A
  8
0
100
AcDbEntity
100
AcDbPolyline
 70
0
 90
2
 10
-59777.4366310744
 20
-37717.4493154121
 10
-46327.4366310744
 20
-37717.4493154121
  0
LWPOLYLINE
  5
2003B
  8
0
100
AcDbEntity
100
AcDbPolyline
 70
0
 90
2
 10
-57127.4366310744
 20
-34467.4493154121
 10
-57127.4366310744
 20
-29567.4493154121
  0
LWPOLYLINE
  5
2003C
  8
0
100
AcDbEntity
100
AcDbPolyline
 70
0
 90
2
 10
-57127.4366310744
 20
-29567.4493154121
 10
-63227.4366310744
 20
-29567.4493154121
  0
LWPOLYLINE
  5
2003D
  8
0
100
AcDbEntity
100
AcDbPolyline
 70
0
 90
2
 10
-55227.4366310744
 20
-27117.4493154121
 10
-55227.4366310744
 20
-23467.4493154121
  0
LWPOLYLINE
  5
2003E
  8
0
100
AcDbEntity
100
AcDbPolyline
 70
0
 90
2
 10
-46527.4366310744
 20
-23467.4493154121
 10
-52120
 20
-23467.4493154121
  0
LWPOLYLINE
  5
2003F
  8
0
100
AcDbEntity
100
AcDbPolyline
 70
0
 90
2
 10
-52727.4366310744
 20
-34467.4493154121
 10
-52727.4366310744
 20
-32936.5556896095
  0
LWPOLYLINE
  5
20040
  8
0
100
AcDbEntity
100
AcDbPolyline
 70
0
 90
2
 10
-52727.4366310744
 20
-32936.5556896095
 10
-50336.4016659688
 20
-32936.5556896095
  0
LWPOLYLINE
  5
20041
  8
0
100
AcDbEntity
100
AcDbPolyline
 70
0
 90
2
 10
-50336.4016659688
 20
-32936.5556896095
 10
-48558.5950841247
 20
-31178.8857099057
  0
LWPOLYLINE
  5
20042
  8
0
100
AcDbEntity
100
AcDbPolyline
 70
0
 90
2
 10
-48558.5950841247
 20
-31178.8857099057
 10
-48558.5950841247
 20
-27678.8857099057
  0
LWPOLYLINE
  5
20043
  8
0
100
AcDbEntity
100
AcDbPolyline
 70
0
 90
2
 10
-48558.5950841247
 20
-27678.8857099057
 10
-46427.4366310744
 20
-25567.4493154121
  0
LWPOLYLINE
  5
20044
  8
0
100
AcDbEntity
100
AcDbPolyline
 70
0
 90
2
 10
-46427.4366310744
 20
-25567.4493154121
 10
-46427.4366310744
 20
-23467.4493154121
  0
LWPOLYLINE
  5
20045
  8
0
100
AcDbEntity
100
AcDbPolyline
 70
0
 90
2
 10
-46427.4366310744
 20
-23467.4493154121
 10
-55227.4366310744
 20
-23467.4493154121
  0
LWPOLYLINE
  5
20046
  8
0
100
AcDbEntity
100
AcDbPolyline
 70
0
 90
2
 10
-54620.4291430884
 20
-11970.7339125497
 10
-54620.4291430884
 20
-10720.7339125497
  0
LWPOLYLINE
  5
20047
  8
0
100
AcDbEntity
100
AcDbPolyline
 70
0
 90
2
 10
-54620.4291430884
 20
-10720.7339125497
 10
-63220.4291430885
 20
-10720.7339125497
  0
LWPOLYLINE
  5
20048
  8
0
100
AcDbEntity
100
AcDbPolyline
 70
0
 90
2
 10
-51920.4291430884
 20
-11970.7339125497
 10
-51920.4291430884
 20
-10720.7339125497
  0
LWPOLYLINE
  5
20049
  8
0
100
AcDbEntity
100
AcDbPolyline
 70
0
 90
2
 10
-54620.4291430884
 20
-11970.7339125497
 10
-56720.4291430884
 20
-11970.7339125497
  0
LWPOLYLINE
  5
2004A
  8
0
100
AcDbEntity
100
AcDbPolyline
 70
0
 90
2
 10
-56720.4291430884
 20
-11970.7339125497
 10
-56720.4291430884
 20
-19770.7339125497
  0
LWPOLYLINE
  5
2004B
  8
0
100
AcDbEntity
100
AcDbPolyline
 70
0
 90
2
 10
-56720.4291430884
 20
-19770.7339125497
 10
-55378.923281716
 20
-21514.3973043497
  0
LWPOLYLINE
  5
2004C
  8
0
100
AcDbEntity
100
AcDbPolyline
 70
0
 90
2
 10
-55378.923281716
 20
-21514.3973043497
 10
-46528.923281716
 20
-21514.3973043497
  0
LWPOLYLINE
  5
2004D
  8
0
100
AcDbEntity
100
AcDbPolyline
 70
0
 90
2
 10
-46528.923281716
 20
-21514.3973043497
 10
-46528.923281716
 20
-19414.3973043497
  0
LWPOLYLINE
  5
2004E
  8
0
100
AcDbEntity
100
AcDbPolyline
 70
0
 90
2
 10
-52727.4366310744
 20
-34467.4493154121
 10
-46327.4366310744
 20
-34467.4493154121
  0
LWPOLYLINE
  5
2004F
  8
0
100
AcDbEntity
100
AcDbPolyline
 70
0
 90
2
 10
-46327.4366310744
 20
-34467.4493154121
 10
-46327.4366310744
 20
-28517.4493154121
  0
LWPOLYLINE
  5
20050
  8
0
100
AcDbEntity
100
AcDbPolyline
 70
0
 90
2
 10
-46327.4366310744
 20
-28517.4493154121
 10
-43711.1478800793
 20
-25901.1478856421
  0
LWPOLYLINE
  5
20051
  8
0
100
AcDbEntity
100
AcDbPolyline
 70
0
 90
2
 10
-43711.1478800793
 20
-25901.1478856421
 10
-40011.1478800793
 20
-25901.1478856421
  0
LWPOLYLINE
  5
20052
  8
0
100
AcDbEntity
100
AcDbPolyline
 70
0
 90
2
 10
-40011.1478800793
 20
-25901.1478856421
 10
-40011.1478800793
 20
-19151.1478856421
  0
LWPOLYLINE
  5
20053
  8
0
100
AcDbEntity
100
AcDbPolyline
 70
0
 90
2
 10
-40011.1478800793
 20
-19151.1478856421
 10
-40401.1478800793
 20
-19151.1478856421
  0
LWPOLYLINE
  5
20054
  8
0
100
AcDbEntity
100
AcDbPolyline
 70
0
 90
2
 10
-40401.1478800793
 20
-19151.1478856421
 10
-43901.1478800793
 20
-19151.1478856421
  0
LWPOLYLINE
  5
20055
  8
0
100
AcDbEntity
100
AcDbPolyline
 70
0
 90
2
 10
-46327.4366310744
 20
-37717.4493154121
 10
-46327.4366310744
 20
-38217.4493154121
  0
LWPOLYLINE
  5
20056
  8
0
100
AcDbEntity
100
AcDbPolyline
 70
0
 90
2
 10
-46327.4366310744
 20
-38217.4493154121
 10
-42789.4807703965
 20
-41750.5596063449
  0
LWPOLYLINE
  5
20057
  8
0
100
AcDbEntity
100
AcDbPolyline
 70
0
 90
2
 10
-42789.4807703965
 20
-41789.6802616973
 10
-35889.4807703965
 20
-41789.6802616973
  0
LWPOLYLINE
  5
20058
  8
0
100
AcDbEntity
100
AcDbPolyline
 70
0
 90
2
 10
-35889.4807703965
 20
-25901.1478856421
 10
-37371.1478800793
 20
-25901.1478856421
  0
LWPOLYLINE
  5
20059
  8
0
100
AcDbEntity
100
AcDbPolyline
 70
0
 90
2
 10
-37371.1478800793
 20
-21651.1478856421
 10
-25371.1478800793
 20
-21651.1478856421
  0
LWPOLYLINE
  5
2005A
  8
0
100
AcDbEntity
100
AcDbPolyline
 70
0
 90
2
 10
-25371.1478800793
 20
-21651.1478856421
 10
-25371.1478800793
 20
-27951.1478856421
  0
LWPOLYLINE
  5
2005B
  8
0
100
AcDbEntity
100
AcDbPolyline
 70
0
 90
2
 10
-25371.1478800793
 20
-27951.1478856421
 10
-26880.875928661
 20
-29410.8469023321
  0
LWPOLYLINE
  5
2005C
  8
0
100
AcDbEntity
100
AcDbPolyline
 70
0
 90
2
 10
-26880.875928661
 20
-29410.8469023321
 10
-33880.875928661
 20
-29410.8469023321
  0
LWPOLYLINE
  5
2005D
  8
0
100
AcDbEntity
100
AcDbPolyline
 70
0
 90
2
 10
-33880.875928661
 20
-29410.8469023321
 10
-33980.875928661
 20
-29410.8469023321
  0
LWPOLYLINE
  5
2005E
  8
0
100
AcDbEntity
100
AcDbPolyline
 70
0
 90
2
 10
-48220.4291430885
 20
-7420.73391254971
 10
-48220.4291430885
 20
-3330.73391254972
  0
LWPOLYLINE
  5
2005F
  8
0
100
AcDbEntity
100
AcDbPolyline
 70
0
 90
2
 10
-48220.4291430885
 20
-3330.73391254972
 10
-44846.3715919603
 20
83.3158295710682
  0
LWPOLYLINE
  5
20060
  8
0
100
AcDbEntity
100
AcDbPolyline
 70
0
 90
2
 10
-28985.1215269549
 20
-4854.90224909698
 10
-28985.1215269549
 20
-7354.90224909698
  0
LWPOLYLINE
  5
20061
  8
0
100
AcDbEntity
100
AcDbPolyline
 70
0
 90
2
 10
-28985.1215269549
 20
-7354.90224909698
 10
-25260.1215269549
 20
-7354.90224909698
  0
LWPOLYLINE
  5
20062
  8
0
100
AcDbEntity
100
AcDbPolyline
 70
0
 90
2
 10
-25260.1215269549
 20
-7354.90224909698
 10
-25260.1215269549
 20
-3904.90224909698
  0
LWPOLYLINE
  5
20063
  8
0
100
AcDbEntity
100
AcDbPolyline
 70
0
 90
2
 10
-25260.1215269549
 20
-3904.90224909698
 10
-21060.1215269549
 20
-3904.90224909698
  0
LWPOLYLINE
  5
20064
  8
0
100
AcDbEntity
100
AcDbPolyline
 70
0
 90
2
 10
-21060.1215269549
 20
-3904.90224909698
 10
-17380.6759893868
 20
-7579.36554814766
  0
LWPOLYLINE
  5
20065
  8
0
100
AcDbEntity
100
AcDbPolyline
 70
0
 90
2
 10
-17380.6759893868
 20
-7579.36554814766
 10
-17380.6759893868
 20
-12929.3655481477
  0
LWPOLYLINE
  5
20066
  8
0
100
AcDbEntity
100
AcDbPolyline
 70
0
 90
2
 10
-28985.1215269549
 20
-10704.902249097
 10
-25260.1215269549
 20
-10704.902249097
  0
LWPOLYLINE
  5
20067
  8
0
100
AcDbEntity
100
AcDbPolyline
 70
0
 90
2
 10
-22380.6759893868
 20
-15129.3655481477
 10
-22380.6759893868
 20
-12935.4304628284
  0
LWPOLYLINE
  5
20068
  8
0
100
AcDbEntity
100
AcDbPolyline
 70
0
 90
2
 10
-22380.6759893868
 20
-12935.4304628284
 10
-23434.684790142
 20
-12935.4304628284
  0
LWPOLYLINE
  5
20069
  8
0
100
AcDbEntity
100
AcDbPolyline
 70
0
 90
2
 10
-23434.684790142
 20
-12935.4304628284
 10
-25260.1215269549
 20
-11154.902249097
  0
LWPOLYLINE
  5
2006A
  8
0
100
AcDbEntity
100
AcDbPolyline
 70
0
 90
2
 10
-25260.1215269549
 20
-11154.902249097
 10
-25260.1215269549
 20
-10704.902249097
  0
LWPOLYLINE
  5
2006B
  8
0
100
AcDbEntity
100
AcDbPolyline
 70
0
 90
2
 10
-22380.6759893868
 20
-15129.3655481477
 10
-24180.6759893868
 20
-15129.3655481477
  0
LWPOLYLINE
  5
2006C
  8
0
100
AcDbEntity
100
AcDbPolyline
 70
0
 90
2
 10
-24180.6759893868
 20
-15129.3655481477
 10
-24180.6759893868
 20
-14379.3655481477
  0
LWPOLYLINE
  5
2006D
  8
0
100
AcDbEntity
100
AcDbPolyline
 70
0
 90
2
 10
-24180.6759893868
 20
-14379.3655481477
 10
-27670.6759893868
 20
-14379.3655481477
  0
LWPOLYLINE
  5
2006E
  8
0
100
AcDbEntity
100
AcDbPolyline
 70
0
 90
2
 10
-27670.6759893868
 20
-14379.3655481477
 10
-27670.6759893868
 20
-15069.3655481477
  0
LWPOLYLINE
  5
2006F
  8
0
100
AcDbEntity
100
AcDbPolyline
 70
0
 90
2
 10
-27670.6759893868
 20
-15069.3655481477
 10
-30361.9941963216
 20
-17752.0519459626
  0
LWPOLYLINE
  5
20070
  8
0
100
AcDbEntity
100
AcDbPolyline
 70
0
 90
2
 10
-35889.4807703965
 20
-33689.6802616974
 10
-35889.4807703965
 20
-41789.6802616973
  0
LWPOLYLINE
  5
20071
  8
0
100
AcDbEntity
100
AcDbPolyline
 70
0
 90
2
 10
-33980.875928661
 20
-29410.8469023321
 10
-33980.875928661
 20
-24901.1478856421
  0
LWPOLYLINE
  5
20072
  8
0
100
AcDbEntity
100
AcDbPolyline
 70
0
 90
2
 10
-33980.875928661
 20
-24901.1478856421
 10
-37371.1478800793
 20
-24901.1478856421
  0
LWPOLYLINE
  5
20073
  8
0
100
AcDbEntity
100
AcDbPolyline
 70
0
 90
2
 10
-37371.1478800793
 20
-24901.1478856421
 10
-37371.1478800793
 20
-25901.1478856421
  0
LWPOLYLINE
  5
20074
  8
0
100
AcDbEntity
100
AcDbPolyline
 70
0
 90
2
 10
-35889.4807703965
 20
-33689.6802616974
 10
-29909.4807703965
 20
-33689.6802616974
  0
LWPOLYLINE
  5
20075
  8
0
100
AcDbEntity
100
AcDbPolyline
 70
0
 90
2
 10
-29909.4807703965
 20
-33689.6802616974
 10
-29909.4807703965
 20
-35189.6802616973
  0
LWPOLYLINE
  5
20076
  8
0
100
AcDbEntity
100
AcDbPolyline
 70
0
 90
2
 10
-29909.4807703965
 20
-35189.6802616973
 10
-34809.4807703965
 20
-35189.6802616973
  0
LWPOLYLINE
  5
20077
  8
0
100
AcDbEntity
100
AcDbPolyline
 70
0
 90
2
 10
-34809.4807703965
 20
-35189.6802616973
 10
-34809.4807703965
 20
-39989.6802616973
  0
LWPOLYLINE
  5
20078
  8
0
100
AcDbEntity
100
AcDbPolyline
 70
0
 90
2
 10
-34809.4807703965
 20
-39989.6802616973
 10
-33117.7960358401
 20
-41692.0911283417
  0
LWPOLYLINE
  5
20079
  8
0
100
AcDbEntity
100
AcDbPolyline
 70
0
 90
2
 10
-33117.7960358401
 20
-41692.0911283417
 10
-27967.7960358402
 20
-41692.0911283417
  0
LWPOLYLINE
  5
2007A
  8
0
100
AcDbEntity
100
AcDbPolyline
 70
0
 90
2
 10
-27967.7960358402
 20
-41692.0911283417
 10
-26151.8802957067
 20
-39901.8537070102
  0
LWPOLYLINE
  5
2007B
  8
0
100
AcDbEntity
100
AcDbPolyline
 70
0
 90
2
 10
-26151.8802957067
 20
-39901.8537070102
 10
-26151.8802957067
 20
-35189.6802616973
  0
LWPOLYLINE
  5
2007C
  8
0
100
AcDbEntity
100
AcDbPolyline
 70
0
 90
2
 10
-26151.8802957067
 20
-35189.6802616973
 10
-27251.8802957067
 20
-35189.6802616973
  0
LWPOLYLINE
  5
2007D
  8
0
100
AcDbEntity
100
AcDbPolyline
 70
0
 90
2
 10
-27251.8802957067
 20
-35189.6802616973
 10
-27251.8802957067
 20
-33689.6802616974
  0
LWPOLYLINE
  5
2007E
  8
0
100
AcDbEntity
100
AcDbPolyline
 70
0
 90
2
 10
-27251.8802957067
 20
-33689.6802616974
 10
-25199.6729342503
 20
-33689.6802616974
  0
LWPOLYLINE
  5
2007F
  8
0
100
AcDbEntity
100
AcDbPolyline
 70
0
 90
2
 10
-17380.6759893868
 20
-12929.3655481477
 10
-19680.6759893868
 20
-12929.3655481477
  0
LWPOLYLINE
  5
20080
  8
0
100
AcDbEntity
100
AcDbPolyline
 70
0
 90
2
 10
-19680.6759893868
 20
-12929.3655481477
 10
-19680.6759893868
 20
-15129.3655481477
  0
LWPOLYLINE
  5
20081
  8
0
100
AcDbEntity
100
AcDbPolyline
 70
0
 90
2
 10
-19680.6759893868
 20
-15129.3655481477
 10
-15620.1015894919
 20
-15129.3655481477
  0
LWPOLYLINE
  5
20082
  8
0
100
AcDbEntity
100
AcDbPolyline
 70
0
 90
2
 10
-7248.8102745926
 20
-23085.3868956477
 10
-10398.8102745926
 20
-23085.3868956477
  0
LWPOLYLINE
  5
20083
  8
0
100
AcDbEntity
100
AcDbPolyline
 70
0
 90
2
 10
-10398.8102745926
 20
-23085.3868956477
 10
-10398.8102745926
 20
-20735.3868956477
  0
LWPOLYLINE
  5
20084
  8
0
100
AcDbEntity
100
AcDbPolyline
 70
0
 90
2
 10
-10398.8102745926
 20
-20735.3868956477
 10
-15620.1015894919
 20
-20735.3868956477
  0
LWPOLYLINE
  5
20085
  8
0
100
AcDbEntity
100
AcDbPolyline
 70
0
 90
2
 10
-15620.1015894919
 20
-20735.3868956477
 10
-15620.1015894919
 20
-23735.3868956477
  0
LWPOLYLINE
  5
20086
  8
0
100
AcDbEntity
100
AcDbPolyline
 70
0
 90
2
 10
-15620.1015894919
 20
-23735.3868956477
 10
-19701.9941963216
 20
-23735.3868956477
  0
LWPOLYLINE
  5
20087
  8
0
100
AcDbEntity
100
AcDbPolyline
 70
0
 90
2
 10
-30361.9941963216
 20
-17752.0519459626
 10
-30361.9941963216
 20
-20352.0519459626
  0
LWPOLYLINE
  5
20088
  8
0
100
AcDbEntity
100
AcDbPolyline
 70
0
 90
2
 10
-30361.9941963216
 20
-20352.0519459626
 10
-24031.9941963216
 20
-20352.0519459626
  0
LWPOLYLINE
  5
20089
  8
0
100
AcDbEntity
100
AcDbPolyline
 70
0
 90
2
 10
-24031.9941963216
 20
-20352.0519459626
 10
-24031.9941963216
 20
-18422.0519459626
  0
LWPOLYLINE
  5
2008A
  8
0
100
AcDbEntity
100
AcDbPolyline
 70
0
 90
2
 10
-24031.9941963216
 20
-18422.0519459626
 10
-18211.9941963216
 20
-18422.0519459626
  0
LWPOLYLINE
  5
2008B
  8
0
100
AcDbEntity
100
AcDbPolyline
 70
0
 90
2
 10
-18211.9941963216
 20
-18422.0519459626
 10
-18211.9941963216
 20
-20472.0519459626
  0
LWPOLYLINE
  5
2008C
  8
0
100
AcDbEntity
100
AcDbPolyline
 70
0
 90
2
 10
-18211.9941963216
 20
-20472.0519459626
 10
-22361.9941963216
 20
-20472.0519459626
  0
LWPOLYLINE
  5
2008D
  8
0
100
AcDbEntity
100
AcDbPolyline
 70
0
 90
2
 10
-22361.9941963216
 20
-20472.0519459626
 10
-22361.9941963216
 20
-28222.0519459626
  0
LWPOLYLINE
  5
2008E
  8
0
100
AcDbEntity
100
AcDbPolyline
 70
0
 90
2
 10
-22361.9941963216
 20
-28222.0519459626
 10
-23411.9941963216
 20
-28222.0519459626
  0
LWPOLYLINE
  5
2008F
  8
0
100
AcDbEntity
100
AcDbPolyline
 70
0
 90
2
 10
-23411.9941963216
 20
-28222.0519459626
 10
-25199.6729342503
 20
-29969.6802616974
  0
LWPOLYLINE
  5
20090
  8
0
100
AcDbEntity
100
AcDbPolyline
 70
0
 90
2
 10
-25199.6729342503
 20
-29969.6802616974
 10
-25199.6729342503
 20
-30419.6802616974
  0
LWPOLYLINE
  5
20091
  8
0
100
AcDbEntity
100
AcDbPolyline
 70
0
 90
2
 10
-25199.6729342503
 20
-30419.6802616974
 10
-35889.4807703965
 20
-30419.6802616974
  0
LWPOLYLINE
  5
20092
  8
0
100
AcDbEntity
100
AcDbPolyline
 70
0
 90
2
 10
-35889.4807703965
 20
-30419.6802616974
 10
-35889.4807703965
 20
-25901.1478856421
  0
LWPOLYLINE
  5
20093
  8
0
100
AcDbEntity
100
AcDbPolyline
 70
0
 90
2
 10
-19701.9941963216
 20
-23735.3868956477
 10
-19701.9941963216
 20
-28222.0519459626
  0
LWPOLYLINE
  5
20094
  8
0
100
AcDbEntity
100
AcDbPolyline
 70
0
 90
2
 10
-48220.4291430885
 20
-10720.7339125497
 10
-48220.4291430885
 20
-14870.7339125497
  0
LWPOLYLINE
  5
20095
  8
0
100
AcDbEntity
100
AcDbPolyline
 70
0
 90
2
 10
-48220.4291430885
 20
-14870.7339125497
 10
-43901.1478800793
 20
-19151.1478856421
  0
LWPOLYLINE
  5
20096
  8
0
100
AcDbEntity
100
AcDbPolyline
 70
0
 90
2
 10
-44846.3715919603
 20
83.3158295710682
 10
-33946.3715919603
 20
83.3158295710682
  0
LWPOLYLINE
  5
20097
  8
0
100
AcDbEntity
100
AcDbPolyline
 70
0
 90
2
 10
-33946.3715919603
 20
83.3158295710682
 10
-28985.1215269549
 20
-4854.90224909698
  0
LWPOLYLINE
  5
20098
  8
0
100
AcDbEntity
100
AcDbPolyline
 70
0
 90
2
 10
-4354.33222747896
 20
-17437.8854900173
 10
-4354.33222747896
 20
-20817.8854900173
  0
LWPOLYLINE
  5
20099
  8
0
100
AcDbEntity
100
AcDbPolyline
 70
0
 90
2
 10
-4354.33222747896
 20
-20817.8854900173
 10
-7248.8102745926
 20
-23085.3868956477
  0
LWPOLYLINE
  5
2009A
  8
0
100
AcDbEntity
100
AcDbPolyline
 70
0
 90
2
 10
-15620.1015894919
 20
-15129.3655481477
 10
-15620.1015894919
 20
-17429.3655481477
  0
LWPOLYLINE
  5
2009B
  8
0
100
AcDbEntity
100
AcDbPolyline
 70
0
 90
2
 10
-15620.1015894919
 20
-17429.3655481477
 10
-10470.1015894919
 20
-17429.3655481477
  0
LWPOLYLINE
  5
2009C
  8
0
100
AcDbEntity
100
AcDbPolyline
 70
0
 90
2
 10
-10470.1015894919
 20
-17429.3655481477
 10
-10470.1015894919
 20
-15049.3655481477
  0
LWPOLYLINE
  5
2009D
  8
0
100
AcDbEntity
100
AcDbPolyline
 70
0
 90
2
 10
-10470.1015894919
 20
-15049.3655481477
 10
-7180.10158949191
 20
-15049.3655481477
  0
LWPOLYLINE
  5
2009E
  8
0
100
AcDbEntity
100
AcDbPolyline
 70
0
 90
2
 10
-7180.10158949191
 20
-15049.3655481477
 10
-4354.33222747896
 20
-17437.8854900173
  0
LWPOLYLINE
  5
2009F
  8
0
100
AcDbEntity
100
AcDbPolyline
 70
0
 90
2
 10
-19701.9941963216
 20
-28222.0519459626
 10
-17301.9941963216
 20
-28222.0519459626
  0
LWPOLYLINE
  5
200A0
  8
0
100
AcDbEntity
100
AcDbPolyline
 70
0
 90
2
 10
-17301.9941963216
 20
-28222.0519459626
 10
-17301.9941963216
 20
-33561.7709040644
  0
LWPOLYLINE
  5
200A1
  8
0
100
AcDbEntity
100
AcDbPolyline
 70
0
 90
2
 10
-17301.9941963216
 20
-33561.7709040644
 10
-21049.6729342503
 20
-37239.6802616973
  0
LWPOLYLINE
  5
200A2
  8
0
100
AcDbEntity
100
AcDbPolyline
 70
0
 90
2
 10
-25199.6729342503
 20
-33689.6802616974
 10
-25199.6729342503
 20
-37189.6802616974
  0
LWPOLYLINE
  5
200A3
  8
0
100
AcDbEntity
100
AcDbPolyline
 70
0
 90
2
 10
-25199.6729342503
 20
-37189.6802616974
 10
-25199.6729342503
 20
-37239.6802616973
  0
LWPOLYLINE
  5
200A4
  8
0
100
AcDbEntity
100
AcDbPolyline
 70
0
 90
2
 10
-25199.6729342503
 20
-37239.6802616973
 10
-21049.6729342503
 20
-37239.6802616973
  0
LWPOLYLINE
  5
200A5
  8
0
100
AcDbEntity
100
AcDbPolyline
 70
0
 90
2
 10
-37371.1478800793
 20
-21651.1478856421
 10
-37371.1478800793
 20
-19151.1478856421
  0
LWPOLYLINE
  5
200A6
  8
0
100
AcDbEntity
100
AcDbPolyline
 70
0
 90
2
 10
-37371.1478800793
 20
-19151.1478856421
 10
-33321.4260517266
 20
-19151.1478856421
  0
LWPOLYLINE
  5
200A7
  8
0
100
AcDbEntity
100
AcDbPolyline
 70
0
 90
2
 10
-33321.4260517266
 20
-19151.1478856421
 10
-28985.1215269549
 20
-14749.902249097
  0
LWPOLYLINE
  5
200A8
  8
0
100
AcDbEntity
100
AcDbPolyline
 70
0
 90
2
 10
-28985.1215269549
 20
-10704.902249097
 10
-28985.1215269549
 20
-14749.902249097
  0
LWPOLYLINE
  5
200A9
  8
0
100
AcDbEntity
100
AcDbPolyline
 70
0
 90
2
 10
-71262.1099499394
 20
-12948.0005567808
 10
-71262.1099499394
 20
-6929.04101740799
  0
LWPOLYLINE
  5
200AA
  8
0
100
AcDbEntity
100
AcDbPolyline
 70
0
 90
2
 10
-71262.1099499394
 20
-6929.04101740799
 10
-69170.4291430885
 20
-5320.73391254971
  0
LWPOLYLINE
  5
200AB
  8
0
100
AcDbEntity
100
AcDbPolyline
 70
0
 90
2
 10
-71243.2767500703
 20
-34000.3582678046
 10
-69575.3138470478
 20
-34000.3582678046
  0
LWPOLYLINE
  5
200AC
  8
0
100
AcDbEntity
100
AcDbPolyline
 70
0
 90
2
 10
-46528.923281716
 20
-19414.3973043497
 10
-49426.4137298385
 20
-16513.6130822748
  0
LWPOLYLINE
  5
200AD
  8
0
100
AcDbEntity
100
AcDbPolyline
 70
0
 90
2
 10
-49426.4137298385
 20
-16513.6130822748
 10
-49426.4137298385
 20
-11970.7339125497
  0
LWPOLYLINE
  5
200AE
  8
0
100
AcDbEntity
100
AcDbPolyline
 70
0
 90
2
 10
-49426.4137298385
 20
-11970.7339125497
 10
-51920.4291430884
 20
-11970.7339125497
  0
LWPOLYLINE
  5
200AF
  8
0
100
AcDbEntity
100
AcDbPolyline
 70
0
 90
2
 10
-43870
 20
-32370
 10
-44500
 20
-32960
  0
LWPOLYLINE
  5
200B0
  8
0
100
AcDbEntity
100
AcDbPolyline
 70
0
 90
2
 10
-44500
 20
-32960
 10
-44500
 20
-33910
  0
LWPOLYLINE
  5
200B1
  8
0
100
AcDbEntity
100
AcDbPolyline
 70
0
 90
2
 10
-44500
 20
-33910
 10
-43600.6154919626
 20
-34259.7606420145
  0
LWPOLYLINE
  5
200B2
  8
0
100
AcDbEntity
100
AcDbPolyline
 70
0
 90
2
 10
-43600.6154919626
 20
-34259.7606420145
 10
-43104.7445536946
 20
-33794.4521286805
  0
LWPOLYLINE
  5
200B3
  8
0
100
AcDbEntity
100
AcDbPolyline
 70
0
 90
2
 10
-43104.7445536946
 20
-33794.4521286805
 10
-43104.7445536946
 20
-34949.4521286805
  0
LWPOLYLINE
  5
200B4
  8
0
100
AcDbEntity
100
AcDbPolyline
 70
0
 90
2
 10
-43104.7445536946
 20
-34949.4521286805
 10
-41854.7445536946
 20
-34949.4521286805
  0
LWPOLYLINE
  5
200B5
  8
0
100
AcDbEntity
100
AcDbPolyline
 70
0
 90
2
 10
-41854.7445536946
 20
-34949.4521286805
 10
-41854.7445536946
 20
-35899.4521286805
  0
LWPOLYLINE
  5
200B6
  8
0
100
AcDbEntity
100
AcDbPolyline
 70
0
 90
2
 10
-41854.7445536946
 20
-35899.4521286805
 10
-41454.7445536946
 20
-35899.4521286805
  0
LWPOLYLINE
  5
200B7
  8
0
100
AcDbEntity
100
AcDbPolyline
 70
0
 90
2
 10
-41454.7445536946
 20
-35899.4521286805
 10
-41454.7445536946
 20
-36629.4521286805
  0
LWPOLYLINE
  5
200B8
  8
0
100
AcDbEntity
100
AcDbPolyline
 70
0
 90
2
 10
-41454.7445536946
 20
-36629.4521286805
 10
-40244.5653545962
 20
-37104.2850530545
  0
LWPOLYLINE
  5
200B9
  8
0
100
AcDbEntity
100
AcDbPolyline
 70
0
 90
2
 10
-40244.5653545962
 20
-37104.2850530545
 10
-39504.6893417387
 20
-36431.5417992064
  0
LWPOLYLINE
  5
200BA
  8
0
100
AcDbEntity
100
AcDbPolyline
 70
0
 90
2
 10
-39504.6893417387
 20
-36431.5417992064
 10
-39504.6893417387
 20
-35899.4521286805
  0
LWPOLYLINE
  5
200BB
  8
0
100
AcDbEntity
100
AcDbPolyline
 70
0
 90
2
 10
-39504.6893417387
 20
-35899.4521286805
 10
-38604.6893417387
 20
-35899.4521286805
  0
LWPOLYLINE
  5
200BC
  8
0
100
AcDbEntity
100
AcDbPolyline
 70
0
 90
2
 10
-38604.6893417387
 20
-35899.4521286805
 10
-38604.6893417387
 20
-34999.4521286805
  0
LWPOLYLINE
  5
200BD
  8
0
100
AcDbEntity
100
AcDbPolyline
 70
0
 90
2
 10
-38604.6893417387
 20
-34999.4521286805
 10
-37954.6893417387
 20
-34999.4521286805
  0
LWPOLYLINE
  5
200BE
  8
0
100
AcDbEntity
100
AcDbPolyline
 70
0
 90
2
 10
-37954.6893417387
 20
-34999.4521286805
 10
-37954.6893417387
 20
-30449.4521286804
  0
LWPOLYLINE
  5
200BF
  8
0
100
AcDbEntity
100
AcDbPolyline
 70
0
 90
2
 10
-37954.6893417387
 20
-30449.4521286804
 10
-40240
 20
-30449.4521286804
  0
LWPOLYLINE
  5
200C0
  8
0
100
AcDbEntity
100
AcDbPolyline
 70
0
 90
2
 10
-40240
 20
-30449.4521286804
 10
-40780.8152873533
 20
-30189.6082814087
  0
LWPOLYLINE
  5
200C1
  8
0
100
AcDbEntity
100
AcDbPolyline
 70
0
 90
2
 10
-40780.8152873533
 20
-30189.6082814087
 10
-41599.3361994994
 20
-30909.4162532869
  0
LWPOLYLINE
  5
200C2
  8
0
100
AcDbEntity
100
AcDbPolyline
 70
0
 90
2
 10
-41599.3361994994
 20
-30909.4162532869
 10
-41804.8902198504
 20
-30734.3518516584
  0
LWPOLYLINE
  5
200C3
  8
0
100
AcDbEntity
100
AcDbPolyline
 70
0
 90
2
 10
-41804.8902198504
 20
-30734.3518516584
 10
-42356.6642751631
 20
-30970.0325506638
  0
LWPOLYLINE
  5
200C4
  8
0
100
AcDbEntity
100
AcDbPolyline
 70
0
 90
2
 10
-42356.6642751631
 20
-30970.0325506638
 10
-43056.6642751631
 20
-30970.0325506638
  0
LWPOLYLINE
  5
200C5
  8
0
100
AcDbEntity
100
AcDbPolyline
 70
0
 90
2
 10
-43056.6642751631
 20
-30970.0325506638
 10
-43056.6642751631
 20
-32710.0325506638
  0
LWPOLYLINE
  5
200C6
  8
0
100
AcDbEntity
100
AcDbPolyline
 70
0
 90
2
 10
-43056.6642751631
 20
-32710.0325506638
 10
-43870
 20
-32370
  0
LWPOLYLINE
  5
200C7
  8
0
100
AcDbEntity
100
AcDbPolyline
 70
0
 90
2
 10
-57127.4366310744
 20
-34467.4493154121
 10
-55227.4366310744
 20
-34467.4493154121
  0
LWPOLYLINE
  5
200C8
  8
0
100
AcDbEntity
100
AcDbPolyline
 70
0
 90
2
 10
-55227.4366310744
 20
-34467.4493154121
 10
-55227.4366310744
 20
-27817.4493154121
  0
LWPOLYLINE
  5
200C9
  8
0
100
AcDbEntity
100
AcDbPolyline
 70
0
 90
2
 10
-55227.4366310744
 20
-27817.4493154121
 10
-50827.4366310744
 20
-27817.4493154121
  0
LWPOLYLINE
  5
200CA
  8
0
100
AcDbEntity
100
AcDbPolyline
 70
0
 90
2
 10
-55227.4366310744
 20
-27117.4493154121
 10
-55227.4366310744
 20
-27817.4493154121
  0
LWPOLYLINE
  5
200CB
  8
0
100
AcDbEntity
100
AcDbPolyline
 70
0
 90
2
 10
-63227.4366310744
 20
-29567.4493154121
 10
-63227.4366310744
 20
-26688.3340766712
  0
LWPOLYLINE
  5
200CC
  8
0
100
AcDbEntity
100
AcDbPolyline
 70
0
 90
2
 10
-63227.4366310744
 20
-26688.3340766712
 10
-65420.4291430884
 20
-26688.3340766712
  0
LWPOLYLINE
  5
200CD
  8
0
100
AcDbEntity
100
AcDbPolyline
 70
0
 90
2
 10
-62530.4291430884
 20
-24087.255364545
 10
-62530.4291430885
 20
-21978.0005567808
  0
LWPOLYLINE
  5
200CE
  8
0
100
AcDbEntity
100
AcDbPolyline
 70
0
 90
2
 10
-58130.4291430884
 20
-16287.2553645449
 10
-58130.4291430884
 20
-24087.255364545
  0
LWPOLYLINE
  5
200CF
  8
0
100
AcDbEntity
100
AcDbPolyline
 70
0
 90
2
 10
-58130.4291430884
 20
-24087.255364545
 10
-62530.4291430884
 20
-24087.255364545
  0
LWPOLYLINE
  5
200D0
  8
0
100
AcDbEntity
100
AcDbPolyline
 70
0
 90
2
 10
-68112.1099499394
 20
-18678.0005567808
 10
-68112.1099499394
 20
-14176.4979608516
  0
LWPOLYLINE
  5
200D1
  8
0
100
AcDbEntity
100
AcDbPolyline
 70
0
 90
2
 10
-68112.1099499394
 20
-14176.4979608516
 10
-71262.1099499394
 20
-14176.4979608516
  0
LWPOLYLINE
  5
200D2
  8
0
100
AcDbEntity
100
AcDbPolyline
 70
0
 90
2
 10
-71262.1099499394
 20
-14176.4979608516
 10
-71262.1099499394
 20
-12948.0005567808
  0
LWPOLYLINE
  5
200D3
  8
0
100
AcDbEntity
100
AcDbPolyline
 70
0
 90
91
 10
-20100
 20
-8680
 10
-20103.3859701388
 20
-8761.61507428063
 10
-20113.5273844492
 20
-8842.83252812328
 10
-20130.37483498
 20
-8923.25667825678
 10
-20153.8462426457
 20
-9002.49570630589
 10
-20183.8272571076
 20
-9080.16356769103
 10
-20220.1718138768
 20
-9155.88187239869
 10
-20262.7028459261
 20
-9229.28172845949
 10
-20311.2131463426
 20
-9300.00553915285
 10
-20365.4663778188
 20
-9367.70874518219
 10
-20425.1982240646
 20
-9432.06150333325
 10
-20490.1176775293
 20
-9492.75029343703
 10
-20559.9084571612
 20
-9549.47944580855
 10
-20634.2305492973
 20
-9601.97258171987
 10
-20712.7218641757
 20
-9649.9739598894
 10
-20795
 20
-9693.24972242779
 10
-20880.6641059632
 20
-9731.58903417003
 10
-20969.2968351519
 20
-9764.80510984314
 10
-21060.4663778188
 20
-9792.73612406533
 10
-21153.7285651165
 20
-9815.24599974292
 10
-21248.629033043
 20
-9832.22507102428
 10
-21344.705436058
 20
-9843.59061758088
 10
-21441.4896995835
 20
-9849.28726761234
 10
-21538.5103004165
 20
-9849.28726761234
 10
-21635.294563942
 20
-9843.59061758088
 10
-21731.370966957
 20
-9832.22507102428
 10
-21826.2714348835
 20
-9815.24599974291
 10
-21919.5336221812
 20
-9792.73612406533
 10
-22010.7031648481
 20
-9764.80510984314
 10
-22099.3358940368
 20
-9731.58903417003
 10
-22185
 20
-9693.24972242779
 10
-22267.2781358243
 20
-9649.9739598894
 10
-22345.7694507027
 20
-9601.97258171986
 10
-22420.0915428388
 20
-9549.47944580855
 10
-22489.8823224707
 20
-9492.75029343703
 10
-22554.8017759354
 20
-9432.06150333325
 10
-22614.5336221812
 20
-9367.70874518219
 10
-22668.7868536574
 20
-9300.00553915285
 10
-22717.2971540739
 20
-9229.28172845949
 10
-22759.8281861232
 20
-9155.88187239869
 10
-22796.1727428924
 20
-9080.16356769103
 10
-22826.1537573543
 20
-9002.49570630589
 10
-22849.62516502
 20
-8923.25667825678
 10
-22866.4726155508
 20
-8842.83252812328
 10
-22876.6140298612
 20
-8761.61507428063
 10
-22880
 20
-8680
 10
-22876.6140298612
 20
-8598.38492571937
 10
-22866.4726155508
 20
-8517.16747187672
 10
-22849.62516502
 20
-8436.74332174322
 10
-22826.1537573543
 20
-8357.50429369411
 10
-22796.1727428924
 20
-8279.83643230897
 10
-22759.8281861232
 20
-8204.11812760131
 10
-22717.2971540739
 20
-8130.71827154051
 10
-22668.7868536574
 20
-8059.99446084715
 10
-22614.5336221812
 20
-7992.29125481781
 10
-22554.8017759354
 20
-7927.93849666675
 10
-22489.8823224707
 20
-7867.24970656297
 10
-22420.0915428388
 20
-7810.52055419145
 10
-22345.7694507027
 20
-7758.02741828013
 10
-22267.2781358243
 20
-7710.0260401106
 10
-22185
 20
-7666.75027757221
 10
-22099.3358940368
 20
-7628.41096582997
 10
-22010.7031648481
 20
-7595.19489015686
 10
-21919.5336221812
 20
-7567.26387593467
 10
-21826.2714348835
 20
-7544.75400025708
 10
-21731.370966957
 20
-7527.77492897572
 10
-21635.294563942
 20
-7516.40938241912
 10
-21538.5103004165
 20
-7510.71273238766
 10
-21441.4896995835
 20
-7510.71273238766
 10
-21344.705436058
 20
-7516.40938241912
 10
-21248.629033043
 20
-7527.77492897572
 10
-21153.7285651165
 20
-7544.75400025708
 10
-21060.4663778188
 20
-7567.26387593467
 10
-20969.2968351519
 20
-7595.19489015686
 10
-20880.6641059632
 20
-7628.41096582997
 10
-20795
 20
-7666.75027757221
 10
-20712.7218641757
 20
-7710.0260401106
 10
-20634.2305492973
 20
-7758.02741828013
 10
-20559.9084571612
 20
-7810.52055419145
 10
-20490.1176775293
 20
-7867.24970656297
 10
-20425.1982240646
 20
-7927.93849666675
 10
-20365.4663778188
 20
-7992.29125481781
 10
-20311.2131463426
 20
-8059.99446084715
 10
-20262.7028459261
 20
-8130.71827154051
 10
-20220.1718138768
 20
-8204.11812760131
 10
-20183.8272571076
 20
-8279.83643230897
 10
-20153.8462426457
 20
-8357.50429369411
 10
-20130.37483498
 20
-8436.74332174322
 10
-20113.5273844492
 20
-8517.16747187672
 10
-20103.3859701388
 20
-8598.38492571937
 10
-20100
 20
-8680
  0
LWPOLYLINE
  5
200D4
  8
0
100
AcDbEntity
100
AcDbPolyline
 70
0
 90
5
 10
-42830
 20
-35000
 10
-41900
 20
-35000
 10
-41900
 20
-36090
 10
-42830
 20
-36090
 10
-42830
 20
-35000
  0
LWPOLYLINE
  5
200D5
  8
0
100
AcDbEntity
100
AcDbPolyline
 70
0
 90
91
 10
-36481.3302890767
 20
-10057.0948454844
 10
-36487.4928487471
 20
-10192.4224045481
 10
-36505.9505043871
 20
-10327.090661347
 10
-36536.6133321537
 20
-10460.4435256709
 10
-36579.3319458324
 20
-10591.8313157694
 10
-36633.8982246312
 20
-10720.6139235362
 10
-36700.0463271249
 20
-10846.1639330515
 10
-36777.4539864073
 20
-10967.8696772891
 10
-36865.7440801434
 20
-11085.1382180969
 10
-36964.4864678714
 20
-11197.3982349318
 10
-37073.2000866038
 20
-11304.1028082763
 10
-37191.3552945181
 20
-11404.7320841749
 10
-37318.3764513181
 20
-11498.7958069106
 10
-37453.6447226961
 20
-11585.8357074815
 10
-37596.501095231
 20
-11665.4277362412
 10
-37746.2495870358
 20
-11737.1841288263
 10
-37902.160638511
 20
-11800.7552953048
 10
-38063.4746666859
 20
-11855.831523344
 10
-38229.4057658305
 20
-11902.144487097
 10
-38399.1455363092
 20
-11939.4685544599
 10
-38571.8670230222
 20
-11967.6218863281
 10
-38746.7287442484
 20
-11986.4673224989
 10
-38922.8787912588
 20
-11995.9130499015
 10
-39099.458978731
 20
-11995.9130499015
 10
-39275.6090257414
 20
-11986.4673224989
 10
-39450.4707469675
 20
-11967.6218863281
 10
-39623.1922336806
 20
-11939.4685544599
 10
-39792.9320041593
 20
-11902.144487097
 10
-39958.8631033039
 20
-11855.831523344
 10
-40120.1771314788
 20
-11800.7552953048
 10
-40276.088182954
 20
-11737.1841288263
 10
-40425.8366747587
 20
-11665.4277362412
 10
-40568.6930472937
 20
-11585.8357074815
 10
-40703.9613186717
 20
-11498.7958069106
 10
-40830.9824754717
 20
-11404.7320841749
 10
-40949.1376833859
 20
-11304.1028082763
 10
-41057.8513021183
 20
-11197.3982349318
 10
-41156.5936898463
 20
-11085.1382180969
 10
-41244.8837835824
 20
-10967.8696772891
 10
-41322.2914428649
 20
-10846.1639330515
 10
-41388.4395453586
 20
-10720.6139235362
 10
-41443.0058241574
 20
-10591.8313157694
 10
-41485.724437836
 20
-10460.4435256709
 10
-41516.3872656027
 20
-10327.090661347
 10
-41534.8449212426
 20
-10192.4224045481
 10
-41541.0074809131
 20
-10057.0948454844
 10
-41534.8449212426
 20
-9921.76728642085
 10
-41516.3872656027
 20
-9787.09902962192
 10
-41485.724437836
 20
-9653.746165298
 10
-41443.0058241574
 20
-9522.35837519947
 10
-41388.4395453586
 20
-9393.57576743265
 10
-41322.2914428649
 20
-9268.0257579174
 10
-41244.8837835824
 20
-9146.32001367982
 10
-41156.5936898463
 20
-9029.05147287203
 10
-41057.8513021183
 20
-8916.79145603705
 10
-40949.1376833859
 20
-8810.08688269256
 10
-40830.9824754717
 20
-8709.45760679399
 10
-40703.9613186716
 20
-8615.39388405831
 10
-40568.6930472937
 20
-8528.35398348741
 10
-40425.8366747587
 20
-8448.76195472767
 10
-40276.088182954
 20
-8377.00556214264
 10
-40120.1771314788
 20
-8313.43439566407
 10
-39958.8631033039
 20
-8258.35816762488
 10
-39792.9320041593
 20
-8212.04520387185
 10
-39623.1922336806
 20
-8174.72113650902
 10
-39450.4707469675
 20
-8146.56780464077
 10
-39275.6090257414
 20
-8127.72236847
 10
-39099.458978731
 20
-8118.2766410674
 10
-38922.8787912588
 20
-8118.2766410674
 10
-38746.7287442484
 20
-8127.72236847
 10
-38571.8670230222
 20
-8146.56780464077
 10
-38399.1455363092
 20
-8174.72113650902
 10
-38229.4057658305
 20
-8212.04520387185
 10
-38063.4746666859
 20
-8258.35816762488
 10
-37902.160638511
 20
-8313.43439566407
 10
-37746.2495870358
 20
-8377.00556214264
 10
-37596.501095231
 20
-8448.76195472767
 10
-37453.6447226961
 20
-8528.35398348741
 10
-37318.3764513181
 20
-8615.39388405831
 10
-37191.3552945181
 20
-8709.45760679399
 10
-37073.2000866038
 20
-8810.08688269256
 10
-36964.4864678714
 20
-8916.79145603705
 10
-36865.7440801434
 20
-9029.05147287203
 10
-36777.4539864073
 20
-9146.32001367982
 10
-36700.0463271249
 20
-9268.0257579174
 10
-36633.8982246312
 20
-9393.57576743265
 10
-36579.3319458324
 20
-9522.35837519947
 10
-36536.6133321537
 20
-9653.746165298
 10
-36505.9505043871
 20
-9787.09902962192
 10
-36487.4928487471
 20
-9921.76728642085
 10
-36481.3302890767
 20
-10057.0948454844
  0
LWPOLYLINE
  5
200D6
  8
0
100
AcDbEntity
100
AcDbPolyline
 70
0
 90
7
 10
-60987.3808714036
 20
-15009.8800157348
 10
-59387.3808714036
 20
-15009.8800157348
 10
-58520
 20
-15891.354553063
 10
-58520
 20
-16740
 10
-61610
 20
-16740
 10
-61610
 20
-15642.615791223
 10
-60987.3808714036
 20
-15009.8800157348
  0
LWPOLYLINE
  5
200D7
  8
0
100
AcDbEntity
100
AcDbPolyline
 70
0
 90
3
 10
-69620
 20
-12948.0005567808
 10
-68855.6029018711
 20
-12016.4979608516
 10
-68490
 20
-12016.4979608516
  0
LWPOLYLINE
  5
200D8
  8
0
100
AcDbEntity
100
AcDbPolyline
 70
0
 90
5
 10
-59760.4291430884
 20
-19560
 10
-58130.4291430884
 20
-19560
 10
-58130.4291430884
 20
-21770
 10
-59760.4291430884
 20
-21770
 10
-59760.4291430884
 20
-19560
  0
LWPOLYLINE
  5
200D9
  8
0
100
AcDbEntity
100
AcDbPolyline
 70
0
 90
9
 10
-61610
 20
-15642.615791223
 10
-61610
 20
-16740
 10
-61610
 20
-16740
 10
-60850
 20
-16740
 10
-60850
 20
-17250
 10
-60070
 20
-17250
 10
-60070
 20
-16740
 10
-58860
 20
-16740
 10
-58130.4291430884
 20
-17510
  0
LWPOLYLINE
  5
200DA
  8
0
100
AcDbEntity
100
AcDbPolyline
 70
0
 90
5
 10
-56720.4291430884
 20
-13320.7339125497
 10
-54720.4291430884
 20
-13320.7339125497
 10
-54720.4291430884
 20
-14820
 10
-56720.4291430884
 20
-14820
 10
-56720.4291430884
 20
-13320.7339125497
  0
LWPOLYLINE
  5
200DB
  8
0
100
AcDbEntity
100
AcDbPolyline
 70
0
 90
5
 10
-56720.4291430884
 20
-16040
 10
-54720.4291430884
 20
-16040
 10
-54720.4291430884
 20
-17040
 10
-56720.4291430884
 20
-17040
 10
-56720.4291430884
 20
-16040
  0
LWPOLYLINE
  5
200DC
  8
0
100
AcDbEntity
100
AcDbPolyline
 70
0
 90
5
 10
-51426.4137298385
 20
-13320.7339125497
 10
-49426.4137298385
 20
-13320.7339125497
 10
-49426.4137298385
 20
-14820
 10
-51426.4137298385
 20
-14820
 10
-51426.4137298385
 20
-13820
  0
LWPOLYLINE
  5
200DD
  8
0
100
AcDbEntity
100
AcDbPolyline
 70
0
 90
5
 10
-51426.4137298385
 20
-13320.7339125497
 10
-49426.4137298385
 20
-13320.7339125497
 10
-49426.4137298385
 20
-14820
 10
-51426.4137298385
 20
-14820
 10
-51426.4137298385
 20
-13320.7339125497
  0
LWPOLYLINE
  5
200DE
  8
0
100
AcDbEntity
100
AcDbPolyline
 70
0
 90
5
 10
-51426.4137298385
 20
-16040
 10
-49426.4137298385
 20
-16040
 10
-49426.4137298385
 20
-17040
 10
-51426.4137298385
 20
-17040
 10
-51426.4137298385
 20
-16040
  0
LWPOLYLINE
  5
200DF
  8
0
100
AcDbEntity
100
AcDbPolyline
 70
0
 90
5
 10
-51426.4137298385
 20
-11970.7339125497
 10
-49426.4137298385
 20
-11970.7339125497
 10
-49426.4137298385
 20
-13320.7339125497
 10
-51920.4291430884
 20
-13320.7339125497
 10
-51920.4291430884
 20
-11970.7339125497
  0
LWPOLYLINE
  5
200E0
  8
0
100
AcDbEntity
100
AcDbPolyline
 70
0
 90
5
 10
-56226.4137298385
 20
-11970.7339125497
 10
-54620.4291430884
 20
-11970.7339125497
 10
-54620.4291430884
 20
-13320.7339125497
 10
-56720.4291430884
 20
-13320.7339125497
 10
-56720.4291430884
 20
-11970.7339125497
  0
LWPOLYLINE
  5
200E1
  8
0
100
AcDbEntity
100
AcDbPolyline
 70
0
 90
5
 10
-65420.4291430884
 20
-18678.0005567808
 10
-62530.4291430885
 20
-18678.0005567808
 10
-62530.4291430885
 20
-20070
 10
-65420.4291430884
 20
-20070
 10
-65420.4291430884
 20
-18678.0005567808
  0
LWPOLYLINE
  5
200E2
  8
0
100
AcDbEntity
100
AcDbPolyline
 70
0
 90
5
 10
-70662.1099499394
 20
-18678.0005567808
 10
-68112.1099499394
 20
-18678.0005567808
 10
-68112.1099499394
 20
-20070
 10
-70662.1099499394
 20
-20070
 10
-70662.1099499394
 20
-18678.0005567808
  0
LWPOLYLINE
  5
200E3
  8
0
100
AcDbEntity
100
AcDbPolyline
 70
0
 90
5
 10
-73412.1099499394
 20
-16128.0005567808
 10
-70662.1099499394
 20
-16128.0005567808
 10
-70662.1099499394
 20
-17420
 10
-73412.1099499394
 20
-17420
 10
-73412.1099499394
 20
-16128.0005567808
  0
LWPOLYLINE
  5
200E4
  8
0
100
AcDbEntity
100
AcDbPolyline
 70
0
 90
17
 10
-73412.1099499394
 20
-14520
 10
-75100
 20
-14520
 10
-77160
 20
-15910
 10
-77160
 20
-17020
 10
-76360
 20
-17020
 10
-75620
 20
-17490
 10
-75620
 20
-19340
 10
-75380
 20
-19640
 10
-75380
 20
-20550
 10
-74620
 20
-20860
 10
-74620
 20
-21650
 10
-75500
 20
-21650
 10
-75500
 20
-22600
 10
-76080
 20
-22600
 10
-76420
 20
-21970
 10
-77060
 20
-21970
 10
-77060
 20
-25830.6325739824
  0
LWPOLYLINE
  5
200E5
  8
0
100
AcDbEntity
100
AcDbPolyline
 70
0
 90
5
 10
-71243.2767500703
 20
-26688.3340766712
 10
-68043.2767500703
 20
-26688.3340766712
 10
-68043.2767500703
 20
-28080.3335198904
 10
-71243.2767500703
 20
-28080.3335198904
 10
-71243.2767500703
 20
-26688.3340766712
  0
LWPOLYLINE
  5
200E6
  8
0
100
AcDbEntity
100
AcDbPolyline
 70
0
 90
5
 10
-65420.4291430884
 20
-26688.3340766712
 10
-63227.4366310744
 20
-26688.3340766712
 10
-63227.4366310744
 20
-28080.3335198904
 10
-65420.4291430884
 20
-28080.3335198904
 10
-65420.4291430884
 20
-26688.3340766712
  0
LWPOLYLINE
  5
200E7
  8
0
100
AcDbEntity
100
AcDbPolyline
 70
0
 90
5
 10
-63227.4366310744
 20
-29567.4493154121
 10
-57127.4366310744
 20
-29567.4493154121
 10
-57127.4366310744
 20
-30959.4487586313
 10
-63227.4366310744
 20
-30959.4487586313
 10
-63227.4366310744
 20
-29567.4493154121
  0
LWPOLYLINE
  5
200E8
  8
0
100
AcDbEntity
100
AcDbPolyline
 70
0
 90
5
 10
-57127.4366310744
 20
-34467.4493154121
 10
-55227.4366310744
 20
-34467.4493154121
 10
-55227.4366310744
 20
-35859.4487586313
 10
-57127.4366310744
 20
-35859.4487586313
 10
-57127.4366310744
 20
-34467.4493154121
  0
LWPOLYLINE
  5
200E9
  8
0
100
AcDbEntity
100
AcDbPolyline
 70
0
 90
5
 10
-52727.4366310744
 20
-34467.4493154121
 10
-46327.4366310744
 20
-34467.4493154121
 10
-46327.4366310744
 20
-35859.4487586313
 10
-52727.4366310744
 20
-35859.4487586313
 10
-52727.4366310744
 20
-34467.4493154121
  0
LWPOLYLINE
  5
200EA
  8
0
100
AcDbEntity
100
AcDbPolyline
 70
0
 90
5
 10
-55227.4366310744
 20
-27817.4493154121
 10
-50560
 20
-27817.4493154121
 10
-50560
 20
-29509.4487586313
 10
-55227.4366310744
 20
-29509.4487586313
 10
-55227.4366310744
 20
-27817.4493154121
  0
LWPOLYLINE
  5
200EB
  8
0
100
AcDbEntity
100
AcDbPolyline
 70
0
 90
4
 10
-55227.4366310744
 20
-24850
 10
-52570
 20
-24850
 10
-52570
 20
-25450
 10
-46427.4366310744
 20
-25450
  0
LWPOLYLINE
  5
200EC
  8
0
100
AcDbEntity
100
AcDbPolyline
 70
0
 90
12
 10
-46327.4366310744
 20
-30190
 10
-45327.4366310744
 20
-30190
 10
-45327.4366310744
 20
-29110
 10
-44407.4366310744
 20
-29110
 10
-44407.4366310744
 20
-28610
 10
-43707.4366310744
 20
-28610
 10
-43707.4366310744
 20
-28240
 10
-43557.4366310744
 20
-28240
 10
-42562.5667870883
 20
-27904.2411676112
 10
-42562.5667870883
 20
-27204.2411676112
 10
-40011.1478800793
 20
-27204.2411676112
 10
-40011.1478800793
 20
-25901.1478856421
  0
LWPOLYLINE
  5
200ED
  8
0
100
AcDbEntity
100
AcDbPolyline
 70
0
 90
5
 10
-37371.1478800793
 20
-25901.1478856421
 10
-35889.4807703965
 20
-25901.1478856421
 10
-35889.4807703965
 20
-27293.1473288612
 10
-37371.1478800793
 20
-27293.1473288613
 10
-37371.1478800793
 20
-25901.1478856421
  0
LWPOLYLINE
  5
200EE
  8
0
100
AcDbEntity
100
AcDbPolyline
 70
0
 90
5
 10
-35889.4807703965
 20
-30419.6802616974
 10
-25199.6729342503
 20
-30419.6802616974
 10
-25199.6729342503
 20
-31811.6797049165
 10
-35889.4807703965
 20
-31811.6797049166
 10
-35889.4807703965
 20
-30419.6802616974
  0
LWPOLYLINE
  5
200EF
  8
0
100
AcDbEntity
100
AcDbPolyline
 70
0
 90
4
 10
-25199.6729342503
 20
-31811.6797049165
 10
-23530
 20
-31811.6797049165
 10
-22361.9941963216
 20
-30730
 10
-22361.9941963216
 20
-28222.0519459626
  0
LWPOLYLINE
  5
200F0
  8
0
100
AcDbEntity
100
AcDbPolyline
 70
0
 90
5
 10
-25199.6729342503
 20
-33689.6802616974
 10
-23870
 20
-33689.6802616974
 10
-22330
 20
-35300
 10
-22330
 20
-35980
 10
-25199.6729342503
 20
-35980
  0
LWPOLYLINE
  5
200F1
  8
0
100
AcDbEntity
100
AcDbPolyline
 70
0
 90
7
 10
-19848.4502422943
 20
-36060.8203624661
 10
-19848.4502422943
 20
-34440
 10
-19110
 20
-33180
 10
-19110
 20
-32300
 10
-19820
 20
-31060
 10
-19820
 20
-30060
 10
-17301.9941963216
 20
-30060
  0
LWPOLYLINE
  5
200F2
  8
0
100
AcDbEntity
100
AcDbPolyline
 70
0
 90
5
 10
-19701.9941963216
 20
-28222.0519459626
 10
-17301.9941963216
 20
-28222.0519459626
 10
-17301.9941963216
 20
-29480
 10
-19701.9941963216
 20
-29480
 10
-19701.9941963216
 20
-28222.0519459626
  0
LWPOLYLINE
  5
200F3
  8
0
100
AcDbEntity
100
AcDbPolyline
 70
0
 90
5
 10
-22361.9941963216
 20
-20472.0519459626
 10
-18211.9941963216
 20
-20472.0519459626
 10
-18211.9941963216
 20
-21730
 10
-22361.9941963216
 20
-21730
 10
-22361.9941963216
 20
-20472.0519459626
  0
LWPOLYLINE
  5
200F4
  8
0
100
AcDbEntity
100
AcDbPolyline
 70
0
 90
5
 10
-15620.1015894919
 20
-17429.3655481477
 10
-10470.1015894919
 20
-17429.3655481476
 10
-10470.1015894919
 20
-18687.313602185
 10
-15620.1015894919
 20
-18687.313602185
 10
-15620.1015894919
 20
-17429.3655481477
  0
LWPOLYLINE
  5
200F5
  8
0
100
AcDbEntity
100
AcDbPolyline
 70
0
 90
10
 10
-10470.1015894919
 20
-16239.3655481477
 10
-7110
 20
-16239.3655481477
 10
-7110
 20
-16920
 10
-7630
 20
-16920
 10
-7630
 20
-18060
 10
-6560
 20
-18440
 10
-6980
 20
-18940
 10
-6650
 20
-20050
 10
-5740
 20
-20050
 10
-5073.39753930241
 20
-21381.1931326252
  0
LWPOLYLINE
  5
200F6
  8
0
100
AcDbEntity
100
AcDbPolyline
 70
0
 90
4
 10
-7248.8102745926
 20
-23085.3868956477
 10
-7248.8102745926
 20
-21390
 10
-6340
 20
-21390
 10
-6340
 20
-22373.4351925954
  0
LWPOLYLINE
  5
200F7
  8
0
100
AcDbEntity
100
AcDbPolyline
 70
0
 90
4
 10
-25260.1215269549
 20
-10704.902249097
 10
-22950
 20
-10704.902249097
 10
-22360
 20
-11030
 10
-22360
 20
-12935.4304628284
  0
LWPOLYLINE
  5
200F8
  8
0
100
AcDbEntity
100
AcDbPolyline
 70
0
 90
4
 10
-19680.6759893868
 20
-12929.3655481477
 10
-19680.6759893868
 20
-10430
 10
-19170
 20
-8710
 10
-17380.6759893868
 20
-8710
  0
LWPOLYLINE
  5
200F9
  8
0
100
AcDbEntity
100
AcDbPolyline
 70
0
 90
8
 10
-28985.1215269549
 20
-7354.90224909698
 10
-28985.1215269549
 20
-8920
 10
-24020
 20
-8920
 10
-23670
 20
-7690
 10
-23010
 20
-6960
 10
-23010
 20
-5150
 10
-21070
 20
-5150
 10
-17380.6759893868
 20
-8710
  0
LWPOLYLINE
  5
200FA
  8
0
100
AcDbEntity
100
AcDbPolyline
 70
0
 90
5
 10
-31730
 20
-25340
 10
-27550
 20
-25340
 10
-27550
 20
-27680
 10
-31730
 20
-27680
 10
-31730
 20
-25340
  0
LWPOLYLINE
  5
200FB
  8
0
100
AcDbEntity
100
AcDbPolyline
 70
0
 90
7
 10
-37371.1478800793
 20
-21651.1478856421
 10
-37371.1478800793
 20
-23120
 10
-32040
 20
-23120
 10
-32040
 20
-23530
 10
-26780
 20
-23530
 10
-26780
 20
-22980
 10
-25371.1478800793
 20
-22980
  0
LWPOLYLINE
  5
200FC
  8
0
100
AcDbEntity
100
AcDbPolyline
 70
0
 90
6
 10
-30361.9941963216
 20
-19190
 10
-28430
 20
-17260
 10
-27525
 20
-17250
 10
-26830
 20
-16500
 10
-22380.6759893868
 20
-16500
 10
-22380.6759893868
 20
-15129.3655481477
  0
LWPOLYLINE
  5
200FD
  8
0
100
AcDbEntity
100
AcDbPolyline
 70
0
 90
10
 10
-30150
 20
-18780
 10
-29370
 20
-18780
 10
-29050
 20
-19370
 10
-27820
 20
-19370
 10
-27530
 20
-18810
 10
-26950
 20
-18810
 10
-26620
 20
-19370
 10
-25280
 20
-19370
 10
-24980
 20
-18810
 10
-24031.9941963216
 20
-18810
  0
LWPOLYLINE
  5
200FE
  8
0
100
AcDbEntity
100
AcDbPolyline
 70
0
 90
5
 10
-19680.6759893868
 20
-15129.3655481477
 10
-15620.1015894919
 20
-15129.3655481476
 10
-15620.1015894919
 20
-16387.313602185
 10
-19680.6759893868
 20
-16387.313602185
 10
-19680.6759893868
 20
-15129.3655481477
  0
LWPOLYLINE
  5
200FF
  8
0
100
AcDbEntity
100
AcDbPolyline
 70
0
 90
4
 10
-28985.1215269549
 20
-6104.90224909698
 10
-33890
 20
-1230
 10
-44800
 20
-1230
 10
-48220.4291430885
 20
-4550
  0
LWPOLYLINE
  5
20100
  8
0
100
AcDbEntity
100
AcDbPolyline
 70
0
 90
91
 10
-36481.3302890767
 20
-10057.0948454844
 10
-36487.4928487471
 20
-10192.4224045481
 10
-36505.9505043871
 20
-10327.090661347
 10
-36536.6133321537
 20
-10460.4435256709
 10
-36579.3319458324
 20
-10591.8313157694
 10
-36633.8982246312
 20
-10720.6139235362
 10
-36700.0463271249
 20
-10846.1639330515
 10
-36777.4539864073
 20
-10967.8696772891
 10
-36865.7440801434
 20
-11085.1382180969
 10
-36964.4864678714
 20
-11197.3982349318
 10
-37073.2000866038
 20
-11304.1028082763
 10
-37191.3552945181
 20
-11404.7320841749
 10
-37318.3764513181
 20
-11498.7958069106
 10
-37453.6447226961
 20
-11585.8357074815
 10
-37596.501095231
 20
-11665.4277362412
 10
-37746.2495870358
 20
-11737.1841288263
 10
-37902.160638511
 20
-11800.7552953048
 10
-38063.4746666859
 20
-11855.831523344
 10
-38229.4057658305
 20
-11902.144487097
 10
-38399.1455363092
 20
-11939.4685544599
 10
-38571.8670230222
 20
-11967.6218863281
 10
-38746.7287442484
 20
-11986.4673224989
 10
-38922.8787912588
 20
-11995.9130499015
 10
-39099.458978731
 20
-11995.9130499015
 10
-39275.6090257414
 20
-11986.4673224989
 10
-39450.4707469675
 20
-11967.6218863281
 10
-39623.1922336806
 20
-11939.4685544599
 10
-39792.9320041593
 20
-11902.144487097
 10
-39958.8631033039
 20
-11855.831523344
 10
-40120.1771314788
 20
-11800.7552953048
 10
-40276.088182954
 20
-11737.1841288263
 10
-40425.8366747587
 20
-11665.4277362412
 10
-40568.6930472937
 20
-11585.8357074815
 10
-40703.9613186717
 20
-11498.7958069106
 10
-40830.9824754717
 20
-11404.7320841749
 10
-40949.1376833859
 20
-11304.1028082763
 10
-41057.8513021183
 20
-11197.3982349318
 10
-41156.5936898463
 20
-11085.1382180969
 10
-41244.8837835824
 20
-10967.8696772891
 10
-41322.2914428649
 20
-10846.1639330515
 10
-41388.4395453586
 20
-10720.6139235362
 10
-41443.0058241574
 20
-10591.8313157694
 10
-41485.724437836
 20
-10460.4435256709
 10
-41516.3872656027
 20
-10327.090661347
 10
-41534.8449212426
 20
-10192.4224045481
 10
-41541.0074809131
 20
-10057.0948454844
 10
-41534.8449212426
 20
-9921.76728642085
 10
-41516.3872656027
 20
-9787.09902962192
 10
-41485.724437836
 20
-9653.746165298
 10
-41443.0058241574
 20
-9522.35837519947
 10
-41388.4395453586
 20
-9393.57576743265
 10
-41322.2914428649
 20
-9268.0257579174
 10
-41244.8837835824
 20
-9146.32001367982
 10
-41156.5936898463
 20
-9029.05147287203
 10
-41057.8513021183
 20
-8916.79145603705
 10
-40949.1376833859
 20
-8810.08688269256
 10
-40830.9824754717
 20
-8709.45760679399
 10
-40703.9613186716
 20
-8615.39388405831
 10
-40568.6930472937
 20
-8528.35398348741
 10
-40425.8366747587
 20
-8448.76195472767
 10
-40276.088182954
 20
-8377.00556214264
 10
-40120.1771314788
 20
-8313.43439566407
 10
-39958.8631033039
 20
-8258.35816762488
 10
-39792.9320041593
 20
-8212.04520387185
 10
-39623.1922336806
 20
-8174.72113650902
 10
-39450.4707469675
 20
-8146.56780464077
 10
-39275.6090257414
 20
-8127.72236847
 10
-39099.458978731
 20
-8118.2766410674
 10
-38922.8787912588
 20
-8118.2766410674
 10
-38746.7287442484
 20
-8127.72236847
 10
-38571.8670230222
 20
-8146.56780464077
 10
-38399.1455363092
 20
-8174.72113650902
 10
-38229.4057658305
 20
-8212.04520387185
 10
-38063.4746666859
 20
-8258.35816762488
 10
-37902.160638511
 20
-8313.43439566407
 10
-37746.2495870358
 20
-8377.00556214264
 10
-37596.501095231
 20
-8448.76195472767
 10
-37453.6447226961
 20
-8528.35398348741
 10
-37318.3764513181
 20
-8615.39388405831
 10
-37191.3552945181
 20
-8709.45760679399
 10
-37073.2000866038
 20
-8810.08688269256
 10
-36964.4864678714
 20
-8916.79145603705
 10
-36865.7440801434
 20
-9029.05147287203
 10
-36777.4539864073
 20
-9146.32001367982
 10
-36700.0463271249
 20
-9268.0257579174
 10
-36633.8982246312
 20
-9393.57576743265
 10
-36579.3319458324
 20
-9522.35837519947
 10
-36536.6133321537
 20
-9653.746165298
 10
-36505.9505043871
 20
-9787.09902962192
 10
-36487.4928487471
 20
-9921.76728642085
 10
-36481.3302890767
 20
-10057.0948454844
  0
LWPOLYLINE
  5
20101
  8
0
100
AcDbEntity
100
AcDbPolyline
 70
0
 90
91
 10
-32200.1614040818
 20
-5397.09484548446
 10
-32206.3239637522
 20
-5532.42240454806
 10
-32224.7816193922
 20
-5667.09066134699
 10
-32255.4444471589
 20
-5800.44352567091
 10
-32298.1630608375
 20
-5931.83131576944
 10
-32352.7293396363
 20
-6060.61392353626
 10
-32418.87744213
 20
-6186.16393305151
 10
-32496.2851014124
 20
-6307.86967728909
 10
-32584.5751951485
 20
-6425.13821809688
 10
-32683.3175828765
 20
-6537.39823493186
 10
-32792.031201609
 20
-6644.10280827635
 10
-32910.1864095232
 20
-6744.73208417491
 10
-33037.2075663232
 20
-6838.7958069106
 10
-33172.4758377012
 20
-6925.8357074815
 10
-33315.3322102362
 20
-7005.42773624124
 10
-33465.0807020409
 20
-7077.18412882627
 10
-33620.9917535161
 20
-7140.75529530484
 10
-33782.305781691
 20
-7195.83152334403
 10
-33948.2368808356
 20
-7242.14448709706
 10
-34117.9766513143
 20
-7279.46855445989
 10
-34290.6981380273
 20
-7307.62188632814
 10
-34465.5598592535
 20
-7326.46732249891
 10
-34641.7099062639
 20
-7335.9130499015
 10
-34818.2900937361
 20
-7335.9130499015
 10
-34994.4401407465
 20
-7326.46732249891
 10
-35169.3018619727
 20
-7307.62188632814
 10
-35342.0233486857
 20
-7279.46855445989
 10
-35511.7631191644
 20
-7242.14448709706
 10
-35677.694218309
 20
-7195.83152334403
 10
-35839.0082464839
 20
-7140.75529530484
 10
-35994.9192979591
 20
-7077.18412882627
 10
-36144.6677897638
 20
-7005.42773624124
 10
-36287.5241622988
 20
-6925.8357074815
 10
-36422.7924336768
 20
-6838.7958069106
 10
-36549.8135904768
 20
-6744.73208417491
 10
-36667.968798391
 20
-6644.10280827634
 10
-36776.6824171235
 20
-6537.39823493186
 10
-36875.4248048515
 20
-6425.13821809688
 10
-36963.7148985876
 20
-6307.86967728909
 10
-37041.12255787
 20
-6186.16393305151
 10
-37107.2706603637
 20
-6060.61392353626
 10
-37161.8369391625
 20
-5931.83131576944
 10
-37204.5555528411
 20
-5800.44352567091
 10
-37235.2183806078
 20
-5667.09066134699
 10
-37253.6760362478
 20
-5532.42240454806
 10
-37259.8385959182
 20
-5397.09484548446
 10
-37253.6760362478
 20
-5261.76728642085
 10
-37235.2183806078
 20
-5127.09902962193
 10
-37204.5555528411
 20
-4993.74616529801
 10
-37161.8369391625
 20
-4862.35837519948
 10
-37107.2706603637
 20
-4733.57576743266
 10
-37041.12255787
 20
-4608.02575791741
 10
-36963.7148985876
 20
-4486.32001367983
 10
-36875.4248048515
 20
-4369.05147287204
 10
-36776.6824171235
 20
-4256.79145603706
 10
-36667.968798391
 20
-4150.08688269257
 10
-36549.8135904768
 20
-4049.457606794
 10
-36422.7924336768
 20
-3955.39388405831
 10
-36287.5241622988
 20
-3868.35398348742
 10
-36144.6677897638
 20
-3788.76195472768
 10
-35994.9192979591
 20
-3717.00556214265
 10
-35839.0082464839
 20
-3653.43439566407
 10
-35677.694218309
 20
-3598.35816762489
 10
-35511.7631191644
 20
-3552.04520387186
 10
-35342.0233486857
 20
-3514.72113650903
 10
-35169.3018619727
 20
-3486.56780464077
 10
-34994.4401407465
 20
-3467.72236847001
 10
-34818.2900937361
 20
-3458.27664106741
 10
-34641.7099062639
 20
-3458.27664106741
 10
-34465.5598592535
 20
-3467.72236847001
 10
-34290.6981380273
 20
-3486.56780464077
 10
-34117.9766513143
 20
-3514.72113650903
 10
-33948.2368808356
 20
-3552.04520387186
 10
-33782.305781691
 20
-3598.35816762489
 10
-33620.9917535161
 20
-3653.43439566407
 10
-33465.0807020409
 20
-3717.00556214265
 10
-33315.3322102362
 20
-3788.76195472768
 10
-33172.4758377012
 20
-3868.35398348742
 10
-33037.2075663232
 20
-3955.39388405831
 10
-32910.1864095232
 20
-4049.457606794
 10
-32792.031201609
 20
-4150.08688269257
 10
-32683.3175828765
 20
-4256.79145603706
 10
-32584.5751951485
 20
-4369.05147287204
 10
-32496.2851014124
 20
-4486.32001367983
 10
-32418.87744213
 20
-4608.02575791741
 10
-32352.7293396363
 20
-4733.57576743266
 10
-32298.1630608375
 20
-4862.35837519948
 10
-32255.4444471589
 20
-4993.74616529801
 10
-32224.7816193922
 20
-5127.09902962193
 10
-32206.3239637522
 20
-5261.76728642086
 10
-32200.1614040818
 20
-5397.09484548446
  0
LWPOLYLINE
  5
20102
  8
0
100
AcDbEntity
100
AcDbPolyline
 70
0
 90
91
 10
-40870.1614040818
 20
-5517.09484548446
 10
-40876.3239637522
 20
-5652.42240454806
 10
-40894.7816193922
 20
-5787.09066134699
 10
-40925.4444471589
 20
-5920.44352567091
 10
-40968.1630608375
 20
-6051.83131576944
 10
-41022.7293396363
 20
-6180.61392353626
 10
-41088.87744213
 20
-6306.16393305151
 10
-41166.2851014124
 20
-6427.86967728909
 10
-41254.5751951485
 20
-6545.13821809688
 10
-41353.3175828765
 20
-6657.39823493186
 10
-41462.031201609
 20
-6764.10280827635
 10
-41580.1864095232
 20
-6864.73208417491
 10
-41707.2075663232
 20
-6958.7958069106
 10
-41842.4758377012
 20
-7045.8357074815
 10
-41985.3322102362
 20
-7125.42773624124
 10
-42135.0807020409
 20
-7197.18412882627
 10
-42290.9917535161
 20
-7260.75529530484
 10
-42452.305781691
 20
-7315.83152334403
 10
-42618.2368808356
 20
-7362.14448709706
 10
-42787.9766513143
 20
-7399.46855445989
 10
-42960.6981380273
 20
-7427.62188632814
 10
-43135.5598592535
 20
-7446.46732249891
 10
-43311.7099062639
 20
-7455.9130499015
 10
-43488.2900937361
 20
-7455.9130499015
 10
-43664.4401407465
 20
-7446.46732249891
 10
-43839.3018619727
 20
-7427.62188632814
 10
-44012.0233486857
 20
-7399.46855445989
 10
-44181.7631191644
 20
-7362.14448709706
 10
-44347.694218309
 20
-7315.83152334403
 10
-44509.0082464839
 20
-7260.75529530484
 10
-44664.9192979591
 20
-7197.18412882627
 10
-44814.6677897638
 20
-7125.42773624124
 10
-44957.5241622988
 20
-7045.8357074815
 10
-45092.7924336768
 20
-6958.7958069106
 10
-45219.8135904768
 20
-6864.73208417491
 10
-45337.968798391
 20
-6764.10280827634
 10
-45446.6824171235
 20
-6657.39823493186
 10
-45545.4248048515
 20
-6545.13821809688
 10
-45633.7148985876
 20
-6427.86967728909
 10
-45711.12255787
 20
-6306.16393305151
 10
-45777.2706603637
 20
-6180.61392353626
 10
-45831.8369391625
 20
-6051.83131576944
 10
-45874.5555528411
 20
-5920.44352567091
 10
-45905.2183806078
 20
-5787.09066134699
 10
-45923.6760362478
 20
-5652.42240454806
 10
-45929.8385959182
 20
-5517.09484548446
 10
-45923.6760362478
 20
-5381.76728642085
 10
-45905.2183806078
 20
-5247.09902962193
 10
-45874.5555528411
 20
-5113.74616529801
 10
-45831.8369391625
 20
-4982.35837519948
 10
-45777.2706603637
 20
-4853.57576743266
 10
-45711.12255787
 20
-4728.02575791741
 10
-45633.7148985876
 20
-4606.32001367983
 10
-45545.4248048515
 20
-4489.05147287204
 10
-45446.6824171235
 20
-4376.79145603706
 10
-45337.968798391
 20
-4270.08688269257
 10
-45219.8135904768
 20
-4169.457606794
 10
-45092.7924336768
 20
-4075.39388405831
 10
-44957.5241622988
 20
-3988.35398348742
 10
-44814.6677897638
 20
-3908.76195472768
 10
-44664.9192979591
 20
-3837.00556214265
 10
-44509.0082464839
 20
-3773.43439566407
 10
-44347.694218309
 20
-3718.35816762489
 10
-44181.7631191644
 20
-3672.04520387186
 10
-44012.0233486857
 20
-3634.72113650903
 10
-43839.3018619727
 20
-3606.56780464077
 10
-43664.4401407465
 20
-3587.72236847001
 10
-43488.2900937361
 20
-3578.27664106741
 10
-43311.7099062639
 20
-3578.27664106741
 10
-43135.5598592535
 20
-3587.72236847001
 10
-42960.6981380273
 20
-3606.56780464077
 10
-42787.9766513143
 20
-3634.72113650903
 10
-42618.2368808356
 20
-3672.04520387186
 10
-42452.305781691
 20
-3718.35816762489
 10
-42290.9917535161
 20
-3773.43439566407
 10
-42135.0807020409
 20
-3837.00556214265
 10
-41985.3322102362
 20
-3908.76195472768
 10
-41842.4758377012
 20
-3988.35398348742
 10
-41707.2075663232
 20
-4075.39388405831
 10
-41580.1864095232
 20
-4169.457606794
 10
-41462.031201609
 20
-4270.08688269257
 10
-41353.3175828765
 20
-4376.79145603706
 10
-41254.5751951485
 20
-4489.05147287204
 10
-41166.2851014124
 20
-4606.32001367983
 10
-41088.87744213
 20
-4728.02575791741
 10
-41022.7293396363
 20
-4853.57576743266
 10
-40968.1630608375
 20
-4982.35837519948
 10
-40925.4444471589
 20
-5113.74616529801
 10
-40894.7816193922
 20
-5247.09902962193
 10
-40876.3239637522
 20
-5381.76728642086
 10
-40870.1614040818
 20
-5517.09484548446
  0
LWPOLYLINE
  5
20103
  8
0
100
AcDbEntity
100
AcDbPolyline
 70
0
 90
91
 10
-40820.1614040818
 20
-14497.0948454845
 10
-40826.3239637522
 20
-14632.4224045481
 10
-40844.7816193922
 20
-14767.090661347
 10
-40875.4444471589
 20
-14900.4435256709
 10
-40918.1630608375
 20
-15031.8313157694
 10
-40972.7293396363
 20
-15160.6139235363
 10
-41038.87744213
 20
-15286.1639330515
 10
-41116.2851014124
 20
-15407.8696772891
 10
-41204.5751951485
 20
-15525.1382180969
 10
-41303.3175828765
 20
-15637.3982349319
 10
-41412.031201609
 20
-15744.1028082763
 10
-41530.1864095232
 20
-15844.7320841749
 10
-41657.2075663232
 20
-15938.7958069106
 10
-41792.4758377012
 20
-16025.8357074815
 10
-41935.3322102362
 20
-16105.4277362412
 10
-42085.0807020409
 20
-16177.1841288263
 10
-42240.9917535161
 20
-16240.7552953048
 10
-42402.305781691
 20
-16295.831523344
 10
-42568.2368808356
 20
-16342.1444870971
 10
-42737.9766513143
 20
-16379.4685544599
 10
-42910.6981380273
 20
-16407.6218863281
 10
-43085.5598592535
 20
-16426.4673224989
 10
-43261.7099062639
 20
-16435.9130499015
 10
-43438.2900937361
 20
-16435.9130499015
 10
-43614.4401407465
 20
-16426.4673224989
 10
-43789.3018619727
 20
-16407.6218863281
 10
-43962.0233486857
 20
-16379.4685544599
 10
-44131.7631191644
 20
-16342.1444870971
 10
-44297.694218309
 20
-16295.831523344
 10
-44459.0082464839
 20
-16240.7552953048
 10
-44614.9192979591
 20
-16177.1841288263
 10
-44764.6677897638
 20
-16105.4277362412
 10
-44907.5241622988
 20
-16025.8357074815
 10
-45042.7924336768
 20
-15938.7958069106
 10
-45169.8135904768
 20
-15844.7320841749
 10
-45287.968798391
 20
-15744.1028082763
 10
-45396.6824171235
 20
-15637.3982349319
 10
-45495.4248048515
 20
-15525.1382180969
 10
-45583.7148985876
 20
-15407.8696772891
 10
-45661.12255787
 20
-15286.1639330515
 10
-45727.2706603637
 20
-15160.6139235363
 10
-45781.8369391625
 20
-15031.8313157694
 10
-45824.5555528411
 20
-14900.4435256709
 10
-45855.2183806078
 20
-14767.090661347
 10
-45873.6760362478
 20
-14632.4224045481
 10
-45879.8385959182
 20
-14497.0948454845
 10
-45873.6760362478
 20
-14361.7672864209
 10
-45855.2183806078
 20
-14227.0990296219
 10
-45824.5555528411
 20
-14093.746165298
 10
-45781.8369391625
 20
-13962.3583751995
 10
-45727.2706603637
 20
-13833.5757674327
 10
-45661.12255787
 20
-13708.0257579174
 10
-45583.7148985876
 20
-13586.3200136798
 10
-45495.4248048515
 20
-13469.051472872
 10
-45396.6824171235
 20
-13356.7914560371
 10
-45287.968798391
 20
-13250.0868826926
 10
-45169.8135904768
 20
-13149.457606794
 10
-45042.7924336768
 20
-13055.3938840583
 10
-44907.5241622988
 20
-12968.3539834874
 10
-44764.6677897638
 20
-12888.7619547277
 10
-44614.9192979591
 20
-12817.0055621426
 10
-44459.0082464839
 20
-12753.4343956641
 10
-44297.694218309
 20
-12698.3581676249
 10
-44131.7631191644
 20
-12652.0452038719
 10
-43962.0233486857
 20
-12614.721136509
 10
-43789.3018619727
 20
-12586.5678046408
 10
-43614.4401407465
 20
-12567.72236847
 10
-43438.2900937361
 20
-12558.2766410674
 10
-43261.7099062639
 20
-12558.2766410674
 10
-43085.5598592535
 20
-12567.72236847
 10
-42910.6981380273
 20
-12586.5678046408
 10
-42737.9766513143
 20
-12614.721136509
 10
-42568.2368808356
 20
-12652.0452038719
 10
-42402.305781691
 20
-12698.3581676249
 10
-42240.9917535161
 20
-12753.4343956641
 10
-42085.0807020409
 20
-12817.0055621426
 10
-41935.3322102362
 20
-12888.7619547277
 10
-41792.4758377012
 20
-12968.3539834874
 10
-41657.2075663232
 20
-13055.3938840583
 10
-41530.1864095232
 20
-13149.457606794
 10
-41412.031201609
 20
-13250.0868826926
 10
-41303.3175828765
 20
-13356.7914560371
 10
-41204.5751951485
 20
-13469.051472872
 10
-41116.2851014124
 20
-13586.3200136798
 10
-41038.87744213
 20
-13708.0257579174
 10
-40972.7293396363
 20
-13833.5757674327
 10
-40918.1630608375
 20
-13962.3583751995
 10
-40875.4444471589
 20
-14093.746165298
 10
-40844.7816193922
 20
-14227.0990296219
 10
-40826.3239637522
 20
-14361.7672864209
 10
-40820.1614040818
 20
-14497.0948454845
  0
LWPOLYLINE
  5
20104
  8
0
100
AcDbEntity
100
AcDbPolyline
 70
0
 90
91
 10
-32240.1614040818
 20
-14517.0948454845
 10
-32246.3239637522
 20
-14652.4224045481
 10
-32264.7816193922
 20
-14787.090661347
 10
-32295.4444471589
 20
-14920.4435256709
 10
-32338.1630608375
 20
-15051.8313157694
 10
-32392.7293396363
 20
-15180.6139235363
 10
-32458.87744213
 20
-15306.1639330515
 10
-32536.2851014124
 20
-15427.8696772891
 10
-32624.5751951485
 20
-15545.1382180969
 10
-32723.3175828765
 20
-15657.3982349319
 10
-32832.031201609
 20
-15764.1028082763
 10
-32950.1864095232
 20
-15864.7320841749
 10
-33077.2075663232
 20
-15958.7958069106
 10
-33212.4758377012
 20
-16045.8357074815
 10
-33355.3322102362
 20
-16125.4277362412
 10
-33505.0807020409
 20
-16197.1841288263
 10
-33660.9917535161
 20
-16260.7552953048
 10
-33822.305781691
 20
-16315.831523344
 10
-33988.2368808356
 20
-16362.1444870971
 10
-34157.9766513143
 20
-16399.4685544599
 10
-34330.6981380273
 20
-16427.6218863281
 10
-34505.5598592535
 20
-16446.4673224989
 10
-34681.7099062639
 20
-16455.9130499015
 10
-34858.2900937361
 20
-16455.9130499015
 10
-35034.4401407465
 20
-16446.4673224989
 10
-35209.3018619727
 20
-16427.6218863281
 10
-35382.0233486857
 20
-16399.4685544599
 10
-35551.7631191644
 20
-16362.1444870971
 10
-35717.694218309
 20
-16315.831523344
 10
-35879.0082464839
 20
-16260.7552953048
 10
-36034.9192979591
 20
-16197.1841288263
 10
-36184.6677897638
 20
-16125.4277362412
 10
-36327.5241622988
 20
-16045.8357074815
 10
-36462.7924336768
 20
-15958.7958069106
 10
-36589.8135904768
 20
-15864.7320841749
 10
-36707.968798391
 20
-15764.1028082763
 10
-36816.6824171235
 20
-15657.3982349319
 10
-36915.4248048515
 20
-15545.1382180969
 10
-37003.7148985876
 20
-15427.8696772891
 10
-37081.12255787
 20
-15306.1639330515
 10
-37147.2706603637
 20
-15180.6139235363
 10
-37201.8369391625
 20
-15051.8313157694
 10
-37244.5555528411
 20
-14920.4435256709
 10
-37275.2183806078
 20
-14787.090661347
 10
-37293.6760362478
 20
-14652.4224045481
 10
-37299.8385959182
 20
-14517.0948454845
 10
-37293.6760362478
 20
-14381.7672864209
 10
-37275.2183806078
 20
-14247.0990296219
 10
-37244.5555528411
 20
-14113.746165298
 10
-37201.8369391625
 20
-13982.3583751995
 10
-37147.2706603637
 20
-13853.5757674327
 10
-37081.12255787
 20
-13728.0257579174
 10
-37003.7148985876
 20
-13606.3200136798
 10
-36915.4248048515
 20
-13489.051472872
 10
-36816.6824171235
 20
-13376.7914560371
 10
-36707.968798391
 20
-13270.0868826926
 10
-36589.8135904768
 20
-13169.457606794
 10
-36462.7924336768
 20
-13075.3938840583
 10
-36327.5241622988
 20
-12988.3539834874
 10
-36184.6677897638
 20
-12908.7619547277
 10
-36034.9192979591
 20
-12837.0055621426
 10
-35879.0082464839
 20
-12773.4343956641
 10
-35717.694218309
 20
-12718.3581676249
 10
-35551.7631191644
 20
-12672.0452038719
 10
-35382.0233486857
 20
-12634.721136509
 10
-35209.3018619727
 20
-12606.5678046408
 10
-35034.4401407465
 20
-12587.72236847
 10
-34858.2900937361
 20
-12578.2766410674
 10
-34681.7099062639
 20
-12578.2766410674
 10
-34505.5598592535
 20
-12587.72236847
 10
-34330.6981380273
 20
-12606.5678046408
 10
-34157.9766513143
 20
-12634.721136509
 10
-33988.2368808356
 20
-12672.0452038719
 10
-33822.305781691
 20
-12718.3581676249
 10
-33660.9917535161
 20
-12773.4343956641
 10
-33505.0807020409
 20
-12837.0055621426
 10
-33355.3322102362
 20
-12908.7619547277
 10
-33212.4758377012
 20
-12988.3539834874
 10
-33077.2075663232
 20
-13075.3938840583
 10
-32950.1864095232
 20
-13169.457606794
 10
-32832.031201609
 20
-13270.0868826926
 10
-32723.3175828765
 20
-13376.7914560371
 10
-32624.5751951485
 20
-13489.051472872
 10
-32536.2851014124
 20
-13606.3200136798
 10
-32458.87744213
 20
-13728.0257579174
 10
-32392.7293396363
 20
-13853.5757674327
 10
-32338.1630608375
 20
-13982.3583751995
 10
-32295.4444471589
 20
-14113.746165298
 10
-32264.7816193922
 20
-14247.0990296219
 10
-32246.3239637522
 20
-14381.7672864209
 10
-32240.1614040818
 20
-14517.0948454845
  0
LWPOLYLINE
  5
20105
  8
0
100
AcDbEntity
100
AcDbPolyline
 70
0
 90
5
 10
-63220.4291430885
 20
-7420.73391254973
 10
-48220.4291430885
 20
-7420.73391254972
 10
-48220.4291430885
 20
-8812.73335576889
 10
-63220.4291430885
 20
-8812.7333557689
 10
-63220.4291430885
 20
-7420.73391254973
  0
LWPOLYLINE
  5
20106
  8
0
100
AcDbEntity
100
AcDbPolyline
 70
0
 90
2
 10
-48590
 20
-21514.3973043497
 10
-46528.923281716
 20
-21514.3973043497
  0
LWPOLYLINE
  5
20107
  8
0
100
AcDbEntity
100
AcDbPolyline
 70
0
 90
2
 10
-46528.923281716
 20
-21514.3973043497
 10
-46528.923281716
 20
-20810
  0
LWPOLYLINE
  5
20108
  8
0
100
AcDbEntity
100
AcDbPolyline
 70
0
 90
2
 10
-46528.923281716
 20
-20810
 10
-47430
 20
-19950
  0
LWPOLYLINE
  5
20109
  8
0
100
AcDbEntity
100
AcDbPolyline
 70
0
 90
2
 10
-47430
 20
-19950
 10
-47810
 20
-19950
  0
LWPOLYLINE
  5
2010A
  8
0
100
AcDbEntity
100
AcDbPolyline
 70
0
 90
2
 10
-47810
 20
-19950
 10
-48640
 20
-18890
  0
LWPOLYLINE
  5
2010B
  8
0
100
AcDbEntity
100
AcDbPolyline
 70
0
 90
2
 10
-48640
 20
-18890
 10
-49426.4137298385
 20
-17885.6643932183
  0
LWPOLYLINE
  5
2010C
  8
0
100
AcDbEntity
100
AcDbPolyline
 70
0
 90
2
 10
-49426.4137298385
 20
-17885.6643932183
 10
-49426.4137298385
 20
-16540
  0
LWPOLYLINE
  5
2010D
  8
0
100
AcDbEntity
100
AcDbPolyline
 70
0
 90
3
 10
-70480.0117799868
 20
-7563.00460725491
 10
-69170
 20
-6570
 10
-63220.4291430885
 20
-6570
  0
LWPOLYLINE
  5
2010E
  8
0
100
AcDbEntity
100
AcDbPolyline
 70
0
 90
4
 10
-62530.4291430885
 20
-17890
 10
-62310
 20
-17890
 10
-61480
 20
-17070
 10
-61480
 20
-16740
  0
LWPOLYLINE
  5
2010F
  8
0
100
AcDbEntity
100
AcDbPolyline
 70
0
 90
3
 10
-34809.4807703965
 20
-36800
 10
-29909.4807703965
 20
-36800
 10
-29909.4807703965
 20
-35189.6802616973
  0
LWPOLYLINE
  5
20110
  8
0
100
AcDbEntity
100
AcDbPolyline
 70
0
 90
5
 10
-27251.8802957067
 20
-35189.6802616973
 10
-26151.8802957067
 20
-35189.6802616973
 10
-26151.8802957067
 20
-36800
 10
-27251.8802957067
 20
-36800
 10
-27251.8802957067
 20
-35189.6802616973
  0
LWPOLYLINE
  5
20111
  8
0
100
AcDbEntity
100
AcDbPolyline
 70
0
 90
6
 10
-34809.4807703965
 20
-37950
 10
-34330
 20
-37950
 10
-34330
 20
-38780
 10
-33820
 20
-38780
 10
-33820
 20
-40340
 10
-34461.3682406237
 20
-40340
  0
LWPOLYLINE
  5
20112
  8
0
100
AcDbEntity
100
AcDbPolyline
 70
0
 90
8
 10
-32470
 20
-41692.0911283417
 10
-32470
 20
-40740
 10
-31400
 20
-40740
 10
-31400
 20
-39580
 10
-30590
 20
-39580
 10
-30590
 20
-40330
 10
-28040
 20
-40330
 10
-28040
 20
-41692.0911283417
  0
LWPOLYLINE
  5
20113
  8
0
100
AcDbEntity
100
AcDbPolyline
 70
0
 90
6
 10
-26667.3151987736
 20
-40410
 10
-27180
 20
-40410
 10
-27180
 20
-38820
 10
-26600
 20
-38820
 10
-26600
 20
-37870
 10
-26151.8802957067
 20
-37870
  0
LWPOLYLINE
  5
20114
  8
0
100
AcDbEntity
100
AcDbPolyline
 70
0
 90
2
 10
-47645
 20
-25450
 10
-48540
 20
-25450
  0
LWPOLYLINE
  5
20115
  8
0
100
AcDbEntity
100
AcDbPolyline
 70
0
 90
2
 10
-71262.1099499395
 20
-6929.04101740798
 10
-70105.6029018711
 20
-7866.49796085163
  0
LWPOLYLINE
  5
20116
  8
0
100
AcDbEntity
100
AcDbPolyline
 70
0
 90
2
 10
-70105.6029018711
 20
-7866.49796085163
 10
-65953.8591100151
 20
-7866.49796085163
  0
LWPOLYLINE
  5
20117
  8
0
100
AcDbEntity
100
AcDbPolyline
 70
0
 90
2
 10
-65953.8591100151
 20
-12016.4979608516
 10
-68855.6029018711
 20
-12016.4979608516
  0
LWPOLYLINE
  5
20118
  8
0
100
AcDbEntity
100
AcDbPolyline
 70
0
 90
2
 10
-68855.6029018711
 20
-12016.4979608516
 10
-69612.1099499394
 20
-12948.0005567808
  0
LWPOLYLINE
  5
20119
  8
0
100
AcDbEntity
100
AcDbPolyline
 70
0
 90
2
 10
-69612.1099499394
 20
-12948.0005567808
 10
-71262.1099499394
 20
-12948.0005567808
  0
LWPOLYLINE
  5
2011A
  8
0
100
AcDbEntity
100
AcDbPolyline
 70
0
 90
2
 10
-71243.2767500703
 20
-28388.3340766712
 10
-70743.2767500703
 20
-28388.3340766712
  0
LWPOLYLINE
  5
2011B
  8
0
100
AcDbEntity
100
AcDbPolyline
 70
0
 90
2
 10
-70743.2767500703
 20
-28388.3340766712
 10
-70024.4622368248
 20
-29083.5359865849
  0
LWPOLYLINE
  5
2011C
  8
0
100
AcDbEntity
100
AcDbPolyline
 70
0
 90
2
 10
-70024.4622368248
 20
-29083.5359865849
 10
-65924.4622368248
 20
-29083.5359865849
  0
LWPOLYLINE
  5
2011D
  8
0
100
AcDbEntity
100
AcDbPolyline
 70
0
 90
2
 10
-65924.4622368248
 20
-29083.5359865849
 10
-65272.9059303331
 20
-29704.4018170756
  0
LWPOLYLINE
  5
2011E
  8
0
100
AcDbEntity
100
AcDbPolyline
 70
0
 90
2
 10
-65272.9059303331
 20
-29704.4018170756
 10
-64858.7587567104
 20
-31093.9996432758
  0
LWPOLYLINE
  5
2011F
  8
0
100
AcDbEntity
100
AcDbPolyline
 70
0
 90
2
 10
-65924.4622368248
 20
-33104.4632999668
 10
-65272.9059303331
 20
-32483.597469476
  0
LWPOLYLINE
  5
20120
  8
0
100
AcDbEntity
100
AcDbPolyline
 70
0
 90
2
 10
-65272.9059303331
 20
-32483.597469476
 10
-64858.7587567104
 20
-31093.9996432758
  0
LWPOLYLINE
  5
20121
  8
0
100
AcDbEntity
100
AcDbPolyline
 70
0
 90
2
 10
-65924.4622368248
 20
-33104.4632999668
 10
-69124.4622368248
 20
-33104.4632999668
  0
LWPOLYLINE
  5
20122
  8
0
100
AcDbEntity
100
AcDbPolyline
 70
0
 90
2
 10
-69124.4622368248
 20
-33104.4632999668
 10
-69124.4622368248
 20
-33604.4632999668
  0
LWPOLYLINE
  5
20123
  8
0
100
AcDbEntity
100
AcDbPolyline
 70
0
 90
2
 10
-69124.4622368248
 20
-33604.4632999668
 10
-69575.3138470478
 20
-34000.3582678046
  0
LWPOLYLINE
  5
20124
  8
0
100
AcDbEntity
100
AcDbPolyline
 70
0
 90
2
 10
-65953.8591100151
 20
-7866.49796085163
 10
-65234.5763167112
 20
-8551.90013465143
  0
LWPOLYLINE
  5
20125
  8
0
100
AcDbEntity
100
AcDbPolyline
 70
0
 90
2
 10
-65234.5763167112
 20
-8551.90013465143
 10
-64820.4291430884
 20
-9941.49796085164
  0
LWPOLYLINE
  5
20126
  8
0
100
AcDbEntity
100
AcDbPolyline
 70
0
 90
2
 10
-65953.8591100151
 20
-12016.4979608516
 10
-65234.5763167112
 20
-11331.0957870518
  0
LWPOLYLINE
  5
20127
  8
0
100
AcDbEntity
100
AcDbPolyline
 70
0
 90
2
 10
-65234.5763167112
 20
-11331.0957870518
 10
-64820.4291430884
 20
-9941.49796085164
  0
LWPOLYLINE
  5
20128
  8
0
100
AcDbEntity
100
AcDbPolyline
 70
0
 90
2
 10
-43870
 20
-32370
 10
-44500
 20
-32960
  0
LWPOLYLINE
  5
20129
  8
0
100
AcDbEntity
100
AcDbPolyline
 70
0
 90
2
 10
-44500
 20
-32960
 10
-44500
 20
-33910
  0
LWPOLYLINE
  5
2012A
  8
0
100
AcDbEntity
100
AcDbPolyline
 70
0
 90
2
 10
-44500
 20
-33910
 10
-43600.6154919626
 20
-34259.7606420145
  0
LWPOLYLINE
  5
2012B
  8
0
100
AcDbEntity
100
AcDbPolyline
 70
0
 90
2
 10
-43600.6154919626
 20
-34259.7606420145
 10
-43104.7445536946
 20
-33794.4521286805
  0
LWPOLYLINE
  5
2012C
  8
0
100
AcDbEntity
100
AcDbPolyline
 70
0
 90
2
 10
-43104.7445536946
 20
-33794.4521286805
 10
-43104.7445536946
 20
-34949.4521286804
  0
LWPOLYLINE
  5
2012D
  8
0
100
AcDbEntity
100
AcDbPolyline
 70
0
 90
2
 10
-43104.7445536946
 20
-34949.4521286804
 10
-41854.7445536946
 20
-34949.4521286804
  0
LWPOLYLINE
  5
2012E
  8
0
100
AcDbEntity
100
AcDbPolyline
 70
0
 90
2
 10
-41854.7445536946
 20
-34949.4521286804
 10
-41854.7445536946
 20
-35899.4521286805
  0
LWPOLYLINE
  5
2012F
  8
0
100
AcDbEntity
100
AcDbPolyline
 70
0
 90
2
 10
-41854.7445536946
 20
-35899.4521286805
 10
-41454.7445536946
 20
-35899.4521286805
  0
LWPOLYLINE
  5
20130
  8
0
100
AcDbEntity
100
AcDbPolyline
 70
0
 90
2
 10
-41454.7445536946
 20
-35899.4521286805
 10
-41454.7445536946
 20
-36629.4521286805
  0
LWPOLYLINE
  5
20131
  8
0
100
AcDbEntity
100
AcDbPolyline
 70
0
 90
2
 10
-41454.7445536946
 20
-36629.4521286805
 10
-40244.5653545962
 20
-37104.2850530545
  0
LWPOLYLINE
  5
20132
  8
0
100
AcDbEntity
100
AcDbPolyline
 70
0
 90
2
 10
-40244.5653545962
 20
-37104.2850530545
 10
-39504.6893417387
 20
-36431.5417992064
  0
LWPOLYLINE
  5
20133
  8
0
100
AcDbEntity
100
AcDbPolyline
 70
0
 90
2
 10
-39504.6893417387
 20
-36431.5417992064
 10
-39504.6893417387
 20
-35899.4521286805
  0
LWPOLYLINE
  5
20134
  8
0
100
AcDbEntity
100
AcDbPolyline
 70
0
 90
2
 10
-39504.6893417387
 20
-35899.4521286805
 10
-38604.6893417387
 20
-35899.4521286805
  0
LWPOLYLINE
  5
20135
  8
0
100
AcDbEntity
100
AcDbPolyline
 70
0
 90
2
 10
-38604.6893417387
 20
-35899.4521286805
 10
-38604.6893417387
 20
-34999.4521286805
  0
LWPOLYLINE
  5
20136
  8
0
100
AcDbEntity
100
AcDbPolyline
 70
0
 90
2
 10
-38604.6893417387
 20
-34999.4521286805
 10
-37954.6893417387
 20
-34999.4521286805
  0
LWPOLYLINE
  5
20137
  8
0
100
AcDbEntity
100
AcDbPolyline
 70
0
 90
2
 10
-37954.6893417387
 20
-34999.4521286805
 10
-37954.6893417387
 20
-30449.4521286804
  0
LWPOLYLINE
  5
20138
  8
0
100
AcDbEntity
100
AcDbPolyline
 70
0
 90
2
 10
-37954.6893417387
 20
-30449.4521286804
 10
-40240
 20
-30449.4521286804
  0
LWPOLYLINE
  5
20139
  8
0
100
AcDbEntity
100
AcDbPolyline
 70
0
 90
2
 10
-40240
 20
-30449.4521286804
 10
-40780.8152873533
 20
-30189.6082814087
  0
LWPOLYLINE
  5
2013A
  8
0
100
AcDbEntity
100
AcDbPolyline
 70
0
 90
2
 10
-40780.8152873533
 20
-30189.6082814087
 10
-41599.3361994994
 20
-30909.4162532869
  0
LWPOLYLINE
  5
2013B
  8
0
100
AcDbEntity
100
AcDbPolyline
 70
0
 90
2
 10
-41599.3361994994
 20
-30909.4162532869
 10
-41804.8902198504
 20
-30734.3518516584
  0
LWPOLYLINE
  5
2013C
  8
0
100
AcDbEntity
100
AcDbPolyline
 70
0
 90
2
 10
-41804.8902198504
 20
-30734.3518516584
 10
-42356.6642751631
 20
-30970.0325506638
  0
LWPOLYLINE
  5
2013D
  8
0
100
AcDbEntity
100
AcDbPolyline
 70
0
 90
2
 10
-42356.6642751631
 20
-30970.0325506638
 10
-43056.6642751631
 20
-30970.0325506638
  0
LWPOLYLINE
  5
2013E
  8
0
100
AcDbEntity
100
AcDbPolyline
 70
0
 90
2
 10
-43056.6642751631
 20
-30970.0325506638
 10
-43056.6642751631
 20
-32710.0325506638
  0
LWPOLYLINE
  5
2013F
  8
0
100
AcDbEntity
100
AcDbPolyline
 70
0
 90
2
 10
-43056.6642751631
 20
-32710.0325506638
 10
-43870
 20
-32370
  0
LWPOLYLINE
  5
20140
  8
0
100
AcDbEntity
100
AcDbPolyline
 70
0
 90
2
 10
-71243.2767500703
 20
-34000.3582678046
 10
-69575.3138470478
 20
-34000.3582678046
  0
ENDSEC
  0
SECTION
  2
OBJECTS
  0
DICTIONARY
  5
C
330
0
100
AcDbDictionary
281
     1
  3
ACAD_GROUP
350
D
  0
DICTIONARY
  5
D
102
{ACAD_REACTORS
330
C
102
}
330
C
100
AcDbDictionary
281
     1
  0
ENDSEC
  0
EOF
